<?xml version="1.0" encoding="utf-8"?>
<!-- Generator: Adobe Illustrator 24.0.1, SVG Export Plug-In . SVG Version: 6.00 Build 0)  -->
<svg version="1.1" id="Layer_1" xmlns="http://www.w3.org/2000/svg" xmlns:xlink="http://www.w3.org/1999/xlink" x="0px" y="0px"
	 viewBox="0 0 180 180" style="enable-background:new 0 0 180 180;" xml:space="preserve">
<style type="text/css">
	.st0{fill:#C82027;}
	.st1{fill:none;stroke:#C82027;stroke-width:2.1116;stroke-miterlimit:10;}
	.st2{fill:none;stroke:#C82027;stroke-width:1.6892;}
</style>
<g>
	<g>
		<path class="st0" d="M97.26,75.49c0.49,2,1.48,3.63,3.3,4.71c0.83,0.49,1.57,1.13,2.32,1.74c0.35,0.27,0.68,0.51,1.14,0.46
			c0.24-0.03,0.41,0.05,0.57,0.27c0.36,0.49,1.72,0.76,2.12,0.46c0.58-0.42,0.99-1.84,0.71-2.41c-0.05-0.11-0.11-0.16-0.22-0.21
			c-0.46-0.18-0.68-0.85-0.41-1.23c0.06-0.08,0.18-0.24,0.18-0.24c-0.89-0.77,0.49-0.76,0.42-1.24c0.51,0.28,0.98-0.2,1.62,0.04
			c0.84,0.33,0.46,1.23,1.11,1.49c-0.6,0.18,0.07,1.15-0.74,1.19c-0.27,0.01-0.28,0.22-0.36,0.4c-0.1,0.26-0.16,0.48-0.6,0.34
			c-0.41-0.13-0.54,0.37-0.58,0.68c-0.05,0.35,0.31,0.23,0.5,0.24c0.45,0.02,0.76,0.18,0.89,0.65c-0.6,0.26-1.3-0.13-1.83,0.47
			c-0.65,0.74-0.82,1.52-0.57,2.44c0.14,0.52,0.17,1.06-0.35,1.38c-0.54,0.33-1.08,0.2-1.54-0.24c0.01-0.08,0.02-0.16,0.03-0.24
			c0.45,0.21,0.96,0.47,1.3-0.06c0.37-0.57,0.17-1.21-0.08-1.79c-0.08-0.18-0.29-0.14-0.46-0.13c-0.87,0.06-1.84-0.31-2.25-0.77
			c-1.5-1.71-3.78-2.28-5.3-3.91c-0.61-0.65-1.02-1.43-1.51-2.16c-0.31-0.46-0.5-1-1.08-1.27c-0.46-0.21-0.07-0.82-0.45-1.2
			c-0.52-0.53-0.72-0.6-1.07,0.08c-0.59,1.15-0.79,2.43-0.99,3.68c-0.09,0.58,0.38,1.09,0.71,1.61c0.03-0.56,0.14-1.05,0.63-1.37
			c0.38,0.19,0.27,1.12,1.03,0.67c0.13,0.6,0.65,0.57,1.2,0.67c-0.26,0.33-0.67,0.41-0.8,0.84c0.3,0.03,0.57,0.05,0.87,0.07
			c-0.05,0.39-0.46,0.35-0.67,0.58c0.73,0.47,1.66,0.59,2.2,1.34c0.75,1.04,1.01,2.21,0.93,3.47c-0.05,0.77-0.14,1.53,0.11,2.29
			c0.21,0.63,0.6,1.12,1.25,1.29c0.41,0.11,0.95,0.22,0.97-0.52c0-0.2,0.06-0.35,0.27-0.31c0.18,0.03,0.24,0.19,0.27,0.39
			c0.06,0.65-0.62,1.28-1.43,1.27c-0.33,0-0.67-0.08-1.07-0.12c0.21,1.92,0.82,3.6,2.17,4.97c0.3,0.3,0.69,0.57,0.18,1.02
			c-0.12,0.11-0.09,0.3,0.01,0.39c0.61,0.52,0.67,1.44,1.4,1.86c0.38,0.22,0.2,0.65,0.38,1.01c-0.76,0.09-0.82-0.96-1.51-0.84
			c-0.09-0.73-1.03-0.79-1.19-1.47c-0.03-0.14-0.09-0.37-0.32-0.31c-0.65,0.18-0.8-0.39-0.96-0.73c-0.95-2.02-1.49-4.17-1.75-6.38
			c-0.05-0.38,0.06-0.78,0.1-1.22c-0.51,0.04-0.72,0.43-0.89,0.79c-0.44,0.92-1.05,1.67-1.86,2.28c-1.57,1.19-2.23,2.78-2.07,4.73
			c0.01,0.17,0.04,0.35,0.02,0.51c-0.25,1.79,0.68,3.02,2.06,3.87c0.84,0.52,1.43,1.32,2.29,1.79c0.12,0.07,0.26,0.23,0.35,0.21
			c0.74-0.21,0.77,0.38,0.91,0.81c0.18,0.52,0.36,0.84,0.97,0.41c0.39-0.27,0.9-0.31,1.35-0.47c0.9-0.33,0.9,0.11,0.87,0.78
			c-0.05,1.05-0.49,1.96-0.87,2.97c0.43,0.18,0.82-0.06,1.22-0.07c0.7-0.02,1.57-0.04,1.83,0.6c0.19,0.47-0.64,0.81-1.08,1.12
			c-0.98,0.71-1.98,0.79-3.73,0.37c0.42,0.75,0.99,1.35,0.98,2.23c0,0.63,0.03,0.94-0.8,0.77c-1.15-0.23-2.21-0.53-2.93-1.54
			c-0.07-0.11-0.23-0.23-0.33-0.22c-0.23,0.03-0.17,0.25-0.18,0.41c-0.05,1.08-0.4,1.99-1.35,2.61c-0.19,0.13-0.24,0.3-0.52,0.05
			c-0.9-0.85-1.96-1.54-1.9-3.04c0.02-0.55-0.47-0.21-0.65-0.03c-0.61,0.63-1.36,1.01-2.16,1.31c-0.72,0.27-1.6,0.45-2.1-0.05
			c-0.36-0.37,0.25-1.1,0.46-1.66c0.21-0.54,0.69-0.79,1.11-1.11c0.07-0.02,0.14-0.04,0.08-0.12c-0.01-0.02-0.11,0.02-0.17,0.04
			c-0.73,0.31-1.44,0.26-2.21,0.02c-0.95-0.3-1.59-0.83-1.89-1.8c0.68-0.27,1.36-0.37,2.09-0.24c0.13,0.02,0.31,0.11,0.37-0.05
			c0.04-0.11-0.01-0.33-0.09-0.38c-0.84-0.52-0.56-1.48-1.01-2.19c0.83-0.24,1.5,0.04,2.17,0.25c0.35,0.11,0.55,0.12,0.48-0.35
			c-0.03-0.22,0.09-0.44,0.1-0.67c0-0.58,0.27-0.67,0.74-0.44c0.74,0.35,0.71,0.02,0.59-0.6c-0.41-2.11-1.18-4.08-2.02-6.04
			c-0.65-1.51-0.98-3.01-0.19-4.57c0.1-0.19,0.07-0.43,0.12-0.79c-0.5,0.35-0.67,0.8-0.91,1.18c-1.11,1.71-2.01,3.58-3.39,5.1
			c-0.74,0.82-1.62,1.52-2.64,2.01c-0.14,0.06-0.28,0.08-0.39-0.04c-0.1-0.1-0.04-0.2,0.02-0.3c0.15-0.25,0.11-0.58,0.46-0.76
			c0.66-0.34,0.57-1.4,1.46-1.55c0.02-1.83,1.7-2.71,2.41-4.16c0.72-1.47,1.71-2.81,2.46-4.28c0.09-0.18,0.3-0.36,0.28-0.51
			c-0.22-1.63,0.9-2.72,1.63-3.96c-0.4-0.26-0.68,0.1-1.08,0.07c0.01-0.46,0.67-0.94,0.06-1.41c0.75-0.36-0.02-0.87,0.11-1.21
			c0.23-0.59,0.65-0.03,0.98,0.01c0.24,0.03,0.21,0.71,0.67,0.32c0.4-0.35,0.23-0.77,0-1.08c-0.82-1.09-1.65-2.17-2.14-3.46
			c-0.05-0.12-0.11-0.16-0.23-0.21c-1.03-0.38-1.39-1.19-1.31-2.19c-0.33-0.16-0.41,0.11-0.52,0.23c-1.22,1.39-2.31,2.87-3.29,4.44
			c-0.74,1.2-1.78,2.05-2.95,2.77c-0.54,0.33-1.09,0.83-1.58,1.04c-0.49,0.21-1.12,0.49-1.76,0.5c-0.51,0.01-0.84,0.23-0.55,0.87
			c0.33,0.72,0.6,1.47,0.9,2.21c0.12,0.3,0.26,0.42,0.64,0.21c0.89-0.5,1.88-0.07,2,0.9c0.19,1.49,0.37,2.99,0.08,4.51
			c-0.06,0.34-0.12,0.6-0.51,0.31c-1.01-0.73-2.11-1.33-3.04-2.19c-0.57-0.53-0.74-1.22-0.71-1.94c0.03-0.71,0.35-1.27,1.3-1.2
			c-0.54-1.07-0.61-2.31-1.76-2.95c-0.2-0.11-0.37-0.35-0.26-0.57c0.42-0.85-0.12-1.53-0.38-2.25c-0.2-0.53-0.44-1.05-0.65-1.57
			c-0.09-0.22-0.17-0.43-0.48-0.35c-0.11-0.02-0.22-0.04-0.33-0.06c0.39-0.18,0.54-0.41,0.3-0.84c-0.29-0.51-0.37-1.13-0.85-1.54
			c-0.08-0.07-0.14-0.18-0.17-0.29c-0.1-0.32-0.32-0.73,0.09-0.9c0.44-0.18,0.68,0.28,0.74,0.6c0.11,0.61,0.4,1.17,0.52,1.77
			c0.12,0.62,0.41,0.85,1.01,0.52c0.06,0.05,0.13,0.11,0.19,0.16c-0.51,0.15-0.68,0.48-0.49,0.98c0.29,0.8,0.58,1.6,0.9,2.39
			c0.08,0.2,0.2,0.48,0.57,0.33c0.45-0.19,1.15-0.04,1.38-0.26c0.65-0.63,1.64-0.33,2.26-1.14c0.76-1.01,1.84-1.77,2.78-2.64
			c0.85-0.79,1.34-1.82,1.92-2.8c0.24-0.4,0.12-1.02-0.06-1.16c-0.33-0.24-0.88-0.01-1.21,0.26c-0.81,0.67-1.77,1.02-2.72,1.37
			c-1.16,0.43-1.33,0.26-1.31-0.95c0.04-1.73,0.52-3.37,1-5c0.16-0.54,0.18-1.06,0.21-1.6c0.02-0.3-0.18-0.39-0.38-0.48
			c-0.41-0.19-0.82-0.37-1.36-0.62c0,0.69,0.02,1.32,0,1.95c-0.03,0.6-0.15,1.18-0.92,1.18c-0.74,0-0.95-0.57-0.98-1.16
			c-0.04-1.09-0.04-2.18,0.88-2.99c0.2-0.18,0.05-0.43,0.21-0.69c0.74,0.69,1.59,1.1,2.55,1.3c0.82,0.17,0.95,1.05,1.47,1.53
			c0.03,0.03-0.03,0.16-0.06,0.22c-0.96,1.67-0.84,3.61-1.37,5.4c-0.12,0.39,0.05,0.55,0.45,0.38c0.21-0.09,0.43-0.16,0.62-0.28
			c1.19-0.77,2.58-1.16,3.69-2.1c0.6-0.51,0.95-0.94,0.84-1.76c-0.11-0.78,0.1-1.52,0.71-2.16c0.43,0.49,0.44,1.23,1.01,1.58
			c0.05-0.03,0.08-0.04,0.08-0.06c0.04-0.63,0.45-1.34,0.28-1.8c-0.19-0.5-1.09-0.14-1.64-0.34c-0.56-0.2-1.17-0.29-1.52-0.86
			c-0.22-0.35-0.46-0.69-0.16-1.09c0.18-0.24,0.03-0.41-0.03-0.62c-0.13-0.45-0.13-0.91,0.14-1.31c0.73-1.08,0.64-1.6-0.49-2.42
			c0.92-0.24,1.17-0.9,1.28-1.71c0.1-0.68,0.72-1.17,0.95-1.78c0.3-0.78,0.88-0.92,1.5-1.19c0.97-0.43,2.06-0.75,2.46-1.93
			c0.07-0.2,0.19-0.22,0.38-0.07c1.12,0.91,2.47,0.77,3.79,0.77c0.18,0,0.32-0.08,0.41,0.13c0.47,1.09,1.5,1.7,2.3,2.44
			c0.55,0.51,0.54,0.87,0.68,1.44c0.31,1.21,0.07,2.49,0.54,3.65c0.1,0.24-0.02,0.27-0.16,0.38c-0.94,0.72-1.27,1.84-1.76,2.84
			c-0.14,0.3-0.22,0.33-0.51,0.43c-0.91,0.35-1.79,0.81-2.63,1.33c-0.34,0.21-0.15,0.7-0.07,1.04c0.09,0.43,0.29,0.84,0.49,1.38
			c0.44-0.75,0.74-1.5,1.44-2.09c0.16,0.81,0.32,1.51,0.44,2.22c0.26,1.5,0.97,1.93,2.46,2.24c1.17,0.24,2.34,0.61,3.53,0.84
			c0.87,0.16,0.86,0.13,0.73-0.75c-0.24-1.59-0.4-3.18-0.6-4.78c-0.05-0.41,0.16-0.71,0.41-0.99c0.11-0.12,0.31-0.31,0.38-0.07
			c0.13,0.42,0.29,0.58,0.6,0.22c0.27-0.31,0.98-0.44,0.54-1.12c-0.15-0.24-0.26-0.51-0.38-0.76c-0.08-0.16-0.27-0.34,0-0.51
			c0.23-0.14,0.46-0.11,0.61,0.09c0.19,0.25,0.34,0.53,0.49,0.8c0.14,0.25,0.22,0.53,0.6,0.49c0.25-0.03,0.41,0.17,0.41,0.35
			c-0.08,1.35,0.91,2.19,1.5,3.23c0.12,0.21,0.35,0.43,0.19,0.66c-0.08,0.12-0.36,0.13-0.55,0.16c-0.27,0.04-0.29-0.19-0.38-0.36
			c-0.35-0.71-0.73-1.41-1.11-2.11c-0.21-0.38-0.48-0.65-0.95-0.3c-0.22,0.16-0.49,0.13-0.74,0.14c-0.18,0.01-0.4,0.09-0.38,0.26
			c0.07,0.78-0.3,1.53,0.03,2.35c0.41,1.02,0.64,2.12,0.8,3.22c0.09,0.63-0.14,0.88-0.78,0.84c-1.2-0.07-2.4-0.09-3.55-0.43
			c-0.6-0.18-1.24,0.3-1.78-0.2c-0.08-0.14-0.22-0.17-0.32-0.08C97.07,75.35,97.18,75.43,97.26,75.49z M93.4,63.63
			c0.8,0.14,0.82,0.15,0.59,0.8c-0.14,0.38-0.35,0.93-0.14,1.14c0.62,0.56,0.07,0.82-0.16,1.19c-0.12,0.19-0.26,0.38-0.33,0.6
			c-0.06,0.2-0.33,0.4-0.12,0.61c0.23,0.23,0.48,0.07,0.69-0.08c1.71-1.15,3.05-2.59,3.1-4.78c0.05-2.07-0.64-3.86-2.45-5.03
			c-1.98-1.27-4.02-1.05-5.95,0.07c-1.64,0.95-3.03,2.16-2.86,4.35c0.02,0.23,0.03,0.5,0.24,0.61c0.29,0.15,0.36-0.19,0.5-0.34
			c0.37-0.41,0.74-0.63,1.33-0.11c-0.52,0.13-0.91,0.24-0.76,0.8c0.16,0.59,0.6,0.92,1.14,1.03c0.63,0.13,0.3-0.54,0.57-0.79
			c0.71,0.63,1.21,0.35,1.59-0.41c0.46-0.92,0.43-2.06,1.33-2.81c0.35-0.3,0.86-0.51,0.98-1.07c0.03-0.16,0.41-0.03,0.38,0.1
			c-0.1,0.46,0.2,0.69,0.36,1.04C93.88,61.49,94.22,62.59,93.4,63.63z M77.76,69.64c-0.1-0.46,0.14-1.28-0.4-1.32
			c-0.63-0.05-0.62,0.78-0.66,1.29c-0.05,0.6-0.15,1.64,0.38,1.65C77.82,71.27,77.68,70.28,77.76,69.64z"/>
		<path class="st0" d="M104.97,86.64c-0.01,0.08-0.02,0.16-0.03,0.24c-0.2-0.35-0.63-0.56-0.56-1.06c0.04-0.26,0.04-0.59,0.35-0.58
			c0.28,0.01,0.23,0.34,0.24,0.55C104.99,86.07,104.97,86.36,104.97,86.64z"/>
		<path class="st0" d="M72.84,80.49c0.11,0.02,0.22,0.04,0.33,0.06c-0.28,0.27-0.74,0.26-0.96,0.65c-0.07,0.13-0.28,0.22-0.44,0.05
			c-0.07-0.08-0.14-0.19-0.15-0.28c-0.01-0.2,0.14-0.35,0.32-0.31C72.27,80.71,72.54,80.49,72.84,80.49z"/>
		<path class="st0" d="M74.67,79.98c-0.06-0.05-0.13-0.11-0.19-0.16c0.18-0.12,0.38-0.23,0.54-0.36c0.17-0.14,0.34-0.23,0.5-0.03
			c0.06,0.08,0.1,0.22,0.07,0.3c-0.07,0.22-0.23,0.33-0.45,0.19C74.97,79.82,74.83,79.97,74.67,79.98z"/>
		<path class="st0" d="M97.26,75.49c-0.08-0.06-0.19-0.14-0.09-0.23c0.1-0.09,0.24-0.06,0.32,0.08
			C97.41,75.39,97.33,75.44,97.26,75.49z"/>
		<path class="st0" d="M88.98,109.89c0.06-0.01,0.16-0.05,0.17-0.04c0.06,0.08-0.01,0.11-0.08,0.12
			C89.04,109.95,89.01,109.92,88.98,109.89z"/>
	</g>
	<circle class="st1" cx="90.56" cy="90.11" r="82.44"/>
	<path id="path284" class="st0" d="M91.03,31.06c-32.68,0-59.17,26.49-59.17,59.17s26.49,59.17,59.17,59.17s59.17-26.49,59.17-59.17
		S123.71,31.06,91.03,31.06z M141.8,103.49l-9.05-0.46l-0.45,1.9l10.08,6.55l0,0l-11.81-2.59l-0.83,1.72l6.29,6.43l-8.36-2.93
		l-0.49,0.54l5.66,7.26l-8.19-3.89l-1.14,1.58l6.81,9.91l0,0l-9.92-6.91l-1.42,1.27l3.35,8.35l-6.6-5.9l-0.65,0.31l2.46,8.87
		l-6.08-6.73l-1.66,1.02l2.5,11.76l0,0l-6.52-10.18l-1.8,0.63l-0.1,9l-3.84-7.98l-0.73,0.04l-1.13,9.13l-3.04-8.53l-1.93,0.31
		l-2.2,11.82l0,0l-2.12-11.9l-1.9-0.11l-3.53,8.28l-0.5-8.84l-0.68-0.24l-4.54,8.01l0.46-9.05l-1.9-0.45l-6.55,10.08l0,0l2.59-11.8
		l-1.71-0.83l-6.43,6.29l2.92-8.36l-0.54-0.48l-7.26,5.66l3.89-8.18l-1.58-1.14l-9.91,6.81l0,0l6.91-9.92l-1.27-1.42l-8.34,3.35
		l5.9-6.6l-0.32-0.65l-8.87,2.45l6.72-6.08l-1.03-1.66l-11.76,2.5l0,0l10.18-6.52l-0.63-1.8l-9-0.09l7.98-3.85l-0.04-0.73
		l-9.13-1.13l8.53-3.04l-0.31-1.93l-11.82-2.19l0,0l11.9-2.12l0.11-1.9l-8.27-3.53l8.84-0.5l0.24-0.68l-8-4.54l9.05,0.46l0.45-1.9
		l-10.08-6.55l0,0l11.8,2.59l0.83-1.71l-6.29-6.43l8.36,2.92l0.48-0.54l-5.66-7.26l8.18,3.89l1.14-1.58l-6.81-9.91l0,0l9.91,6.91
		l1.42-1.27l-3.35-8.34l6.6,5.9l0.65-0.32l-2.45-8.87l6.07,6.72l1.66-1.03l-2.5-11.76l0,0l6.52,10.18l1.8-0.63l0.1-9L82,47.39
		l0.72-0.04l1.13-9.13l3.04,8.53l1.93-0.31l2.19-11.82l0,0l2.12,11.9l1.9,0.11l3.53-8.27l0.5,8.84l0.68,0.24l4.54-8l-0.46,9.05
		l1.9,0.45l6.55-10.08l0,0l-2.59,11.81l1.71,0.83l6.43-6.29l-2.93,8.36l0.54,0.49l7.26-5.67l-3.89,8.19l1.58,1.14l9.91-6.8l0,0
		l-6.91,9.92l1.27,1.42l8.35-3.35l-5.9,6.6l0.31,0.65l8.87-2.46l-6.72,6.08l1.02,1.66l11.76-2.5l0,0l-10.18,6.52l0.63,1.8l9,0.1
		l-7.98,3.84l0.04,0.72l9.13,1.13l-8.54,3.04l0.31,1.92l11.82,2.2l0,0l-11.9,2.12l-0.1,1.9l8.27,3.53l-8.84,0.5l-0.24,0.68
		L141.8,103.49z"/>
	<path id="Äußerer_Ring" class="st2" d="M155.28,90.53c0,35.55-28.82,64.37-64.37,64.37s-64.37-28.82-64.37-64.37
		s28.82-64.37,64.37-64.37S155.28,54.97,155.28,90.53z"/>
	<g>
		<g>
			<path class="st0" d="M15.36,96.92l-0.11-1.68l5.13-0.32l-0.14-2.24l1.41-0.09l0.24,3.92L15.36,96.92z"/>
			<path class="st0" d="M20.23,88.09l1.44,0.39l-0.08,1.71l-6.47-2.03l0.1-2.18l6.62-1.44l-0.08,1.76l-1.47,0.29L20.23,88.09z
				 M19.04,86.74l-1.21,0.21c-0.37,0.07-0.96,0.16-1.36,0.23v0.02c0.39,0.11,0.98,0.23,1.34,0.33l1.18,0.31L19.04,86.74z"/>
			<path class="st0" d="M15.69,80.72l0.25-1.66l5.08,0.77l0.34-2.22l1.39,0.21l-0.59,3.88L15.69,80.72z"/>
			<path class="st0" d="M17.41,71.79l6.36,1.53l-0.39,1.63l-6.36-1.53L17.41,71.79z"/>
			<path class="st0" d="M20.15,67.5l-0.48,1.43l-1.37-0.46l1.51-4.47l1.37,0.46l-0.49,1.45l4.83,1.63l-0.54,1.59L20.15,67.5z"/>
			<path class="st0" d="M22.94,56.77l0.79-1.47l2.47,1.33l0.01-0.02c-0.17-0.22-0.33-0.46-0.5-0.7l-1.28-1.93l0.95-1.77l1.6,2.98
				l4.21,0.05l-0.9,1.69l-2.87-0.18l0.33,0.68l1.76,0.94l-0.79,1.47L22.94,56.77z"/>
			<path class="st0" d="M32.27,50.93l1.01,1.09l-0.98,1.4l-4.38-5.17l1.25-1.79l6.36,2.32l-1.01,1.45l-1.39-0.53L32.27,50.93z
				 M31.98,49.15l-1.13-0.47c-0.35-0.14-0.9-0.38-1.27-0.53l-0.01,0.02c0.27,0.3,0.71,0.72,0.96,0.99l0.83,0.89L31.98,49.15z"/>
			<path class="st0" d="M32.37,42.27l1.1-1.27l3.89,3.36l1.47-1.7l1.06,0.92l-2.57,2.97L32.37,42.27z"/>
			<path class="st0" d="M42.02,39.39l0.75,1.28l-1.25,1.17l-3.19-5.98l1.6-1.49l5.73,3.61l-1.29,1.2l-1.25-0.82L42.02,39.39z
				 M42.12,37.59l-1.01-0.7c-0.31-0.21-0.8-0.57-1.13-0.79l-0.01,0.01c0.2,0.35,0.54,0.85,0.73,1.17l0.63,1.05L42.12,37.59z"/>
			<path class="st0" d="M50.63,29.45l0.63,0.92l-1.96,1.34l-0.63-0.92L50.63,29.45z"/>
			<path class="st0" d="M58.53,25.43c1.06,1.94,0.65,3.59-0.94,4.46c-1.68,0.92-3.26-0.03-4.11-1.57c-0.87-1.6-0.68-3.49,0.96-4.4
				C56.21,22.97,57.76,24.03,58.53,25.43z M55.03,27.46c0.64,1.16,1.36,1.54,1.98,1.2c0.63-0.35,0.6-1.25,0.01-2.32
				c-0.54-0.99-1.3-1.55-1.94-1.2C54.47,25.48,54.42,26.35,55.03,27.46z"/>
			<path class="st0" d="M63.26,22.8l0.43,1.03l-2.19,0.93l-0.43-1.03L63.26,22.8z"/>
			<path class="st0" d="M69.72,17.8c0.45-0.2,1.1-0.42,1.79-0.59c1.11-0.28,1.87-0.26,2.55,0.02c0.79,0.33,1.38,1.04,1.67,2.21
				c0.32,1.27,0.1,2.26-0.39,2.91c-0.49,0.65-1.36,1.11-2.51,1.4c-0.7,0.18-1.22,0.25-1.54,0.29L69.72,17.8z M72.62,22.41
				c0.08,0,0.22-0.03,0.32-0.06c0.93-0.22,1.47-1,1.1-2.47c-0.31-1.22-1.07-1.71-1.97-1.48c-0.21,0.05-0.34,0.1-0.41,0.14
				L72.62,22.41z"/>
			<path class="st0" d="M78.64,15.82c0.46-0.14,1.14-0.29,1.9-0.38c0.91-0.12,1.63-0.09,2.16,0.23c0.46,0.28,0.71,0.71,0.79,1.33
				c0.1,0.76-0.34,1.42-0.87,1.72l0,0.03c0.45,0.13,0.73,0.51,0.96,1.07c0.26,0.63,0.59,1.54,0.74,1.77l-1.71,0.22
				c-0.12-0.17-0.35-0.71-0.61-1.45c-0.25-0.76-0.49-0.9-0.97-0.83l-0.24,0.03L81.13,22l-1.65,0.22L78.64,15.82z M80.65,18.33
				l0.38-0.05c0.6-0.08,0.9-0.47,0.83-0.95c-0.06-0.48-0.38-0.75-0.92-0.68c-0.26,0.03-0.41,0.07-0.49,0.1L80.65,18.33z"/>
			<path class="st0" d="M88.6,14.82l0.25,6.54l-1.68,0.06l-0.25-6.54L88.6,14.82z"/>
			<path class="st0" d="M92.25,19.67c0.35,0.2,0.94,0.41,1.51,0.43c0.59,0.03,0.88-0.18,0.9-0.51c0.02-0.34-0.26-0.54-0.94-0.85
				c-1.06-0.52-1.6-1.18-1.56-2.01c0.05-1.13,0.99-1.99,2.6-1.91c0.68,0.03,1.19,0.19,1.55,0.38l-0.38,1.35
				c-0.25-0.14-0.67-0.32-1.24-0.34c-0.52-0.03-0.81,0.18-0.83,0.47c-0.02,0.32,0.26,0.48,1.04,0.86c1.07,0.51,1.5,1.17,1.46,2.01
				c-0.05,1.16-0.99,2.04-2.74,1.95c-0.72-0.03-1.4-0.25-1.72-0.43L92.25,19.67z"/>
			<path class="st0" d="M101.87,15.61l-0.39,2.43l1.8,0.29l0.39-2.43l1.66,0.27l-1.04,6.47l-1.66-0.27l0.41-2.57l-1.8-0.29
				l-0.41,2.57l-1.66-0.27l1.04-6.47L101.87,15.61z"/>
			<path class="st0" d="M108.66,23.7l0.7-2.47l-0.72-4.34l1.82,0.52l0.08,1.57c0.03,0.47,0.04,0.86,0.04,1.31l0.02,0
				c0.22-0.37,0.43-0.72,0.7-1.11l0.85-1.3l1.78,0.5l-2.93,3.24l-0.72,2.53L108.66,23.7z"/>
			<path class="st0" d="M116.63,24.81l-0.85,1.22l-1.58-0.65l4.1-5.4l2.02,0.83l-0.89,6.71l-1.63-0.67l0.22-1.48L116.63,24.81z
				 M118.3,24.15l0.21-1.21c0.06-0.37,0.18-0.96,0.24-1.36l-0.02-0.01c-0.23,0.33-0.54,0.84-0.76,1.15l-0.69,1.01L118.3,24.15z"/>
			<path class="st0" d="M128.94,25.13l1.41,0.89l-1.49,2.38l0.02,0.01c0.24-0.15,0.48-0.3,0.73-0.45l2.01-1.14l1.7,1.07l-3.09,1.38
				l-0.35,4.19l-1.62-1.02l0.38-2.85l-0.71,0.29l-1.06,1.69l-1.41-0.89L128.94,25.13z"/>
			<path class="st0" d="M134.11,34.84l-1.16,0.93l-1.33-1.07l5.46-4.01l1.7,1.36l-2.75,6.18l-1.38-1.1l0.63-1.36L134.11,34.84z
				 M135.9,34.67l0.54-1.1c0.16-0.34,0.44-0.87,0.62-1.23l-0.02-0.01c-0.31,0.25-0.76,0.65-1.06,0.89l-0.95,0.77L135.9,34.67z"/>
			<path class="st0" d="M142.74,35.54l1.19,1.18l-3.62,3.64l1.59,1.58l-1,1l-2.78-2.77L142.74,35.54z"/>
			<path class="st0" d="M144.95,45.37l-1.33,0.66l-1.07-1.33l6.18-2.77l1.37,1.69l-4,5.46L145,47.72l0.9-1.19L144.95,45.37z
				 M146.74,45.59l0.76-0.96c0.23-0.3,0.62-0.76,0.87-1.07l-0.01-0.02c-0.36,0.18-0.88,0.48-1.22,0.64l-1.09,0.55L146.74,45.59z"/>
			<path class="st0" d="M155.61,51.56l0.81,1.45l-2.45,1.37l0.01,0.02c0.28-0.02,0.57-0.03,0.85-0.04l2.32-0.04l0.98,1.75
				l-3.37-0.27l-2.31,3.51l-0.94-1.67l1.7-2.32l-0.76-0.09l-1.74,0.97l-0.81-1.45L155.61,51.56z"/>
			<path class="st0" d="M157.49,64.13l-0.81-1.91l-1.19,0.5l0.91,2.14l-1.28,0.54l-1.56-3.68l6.03-2.55l1.51,3.56l-1.28,0.54
				l-0.86-2.02l-1.02,0.43l0.81,1.91L157.49,64.13z"/>
			<path class="st0" d="M156.16,68.23l6.28-1.86l0.53,1.78l-1.74,1.56c-0.47,0.45-1.2,1.04-1.78,1.48l0.01,0.03
				c0.71-0.3,1.67-0.64,2.69-0.94l1.34-0.4l0.43,1.45l-6.28,1.86l-0.49-1.63l1.8-1.62c0.52-0.49,1.25-1.11,1.85-1.55l-0.01-0.03
				c-0.74,0.26-1.71,0.58-2.79,0.9l-1.4,0.42L156.16,68.23z"/>
			<path class="st0" d="M164.73,75.28c0.16,0.47,0.33,1.13,0.44,1.83c0.19,1.13,0.11,1.89-0.22,2.54c-0.39,0.76-1.14,1.29-2.34,1.49
				c-1.29,0.22-2.26-0.08-2.86-0.63c-0.61-0.54-1-1.44-1.2-2.61c-0.12-0.71-0.16-1.24-0.16-1.56L164.73,75.28z M159.89,77.79
				c0,0.08,0.02,0.22,0.03,0.32c0.15,0.94,0.87,1.54,2.37,1.29c1.24-0.21,1.79-0.92,1.63-1.85c-0.03-0.21-0.07-0.35-0.11-0.43
				L159.89,77.79z"/>
			<path class="st0" d="M165.99,84.31c0.1,0.47,0.19,1.16,0.23,1.93c0.05,0.92-0.04,1.63-0.4,2.13c-0.32,0.44-0.76,0.65-1.39,0.69
				c-0.76,0.04-1.39-0.46-1.64-1h-0.03c-0.17,0.44-0.57,0.69-1.14,0.87c-0.65,0.21-1.58,0.46-1.83,0.6l-0.09-1.72
				c0.18-0.1,0.73-0.3,1.49-0.49c0.77-0.19,0.93-0.42,0.91-0.9l-0.01-0.24l-2.47,0.12l-0.08-1.66L165.99,84.31z M163.32,86.11
				l0.02,0.38c0.03,0.61,0.4,0.93,0.88,0.9c0.49-0.03,0.77-0.32,0.76-0.87c-0.01-0.26-0.03-0.42-0.06-0.49L163.32,86.11z"/>
			<path class="st0" d="M161.11,93.97l-1.43-0.41l0.11-1.7l6.43,2.15l-0.14,2.18l-6.64,1.32l0.11-1.76l1.47-0.27L161.11,93.97z
				 M162.28,95.35l1.21-0.19c0.37-0.06,0.97-0.14,1.36-0.2v-0.02c-0.38-0.11-0.98-0.24-1.33-0.35l-1.17-0.33L162.28,95.35z"/>
		</g>
	</g>
	<g>
		<g>
			<path class="st0" d="M67.75,118.19l-1.6-1.44l-0.74,0.82l1.78,1.61l-0.88,0.97l-2.97-2.68l4-4.44l2.88,2.6l-0.87,0.97l-1.69-1.52
				l-0.65,0.72l1.6,1.44L67.75,118.19z"/>
			<path class="st0" d="M69.21,120.32c0.21,0.35,0.6,0.82,1.11,1.14c0.46,0.3,0.79,0.28,0.95,0.03c0.15-0.24,0.02-0.53-0.43-1.09
				c-0.66-0.84-0.92-1.67-0.45-2.42c0.57-0.89,1.76-1.1,3.03-0.29c0.6,0.38,0.96,0.77,1.2,1.13l-0.97,0.9
				c-0.16-0.23-0.44-0.62-0.94-0.94c-0.41-0.26-0.73-0.25-0.87-0.03c-0.16,0.26,0.04,0.53,0.52,1.17c0.7,0.91,0.79,1.66,0.35,2.36
				c-0.55,0.87-1.7,1.18-3.18,0.24c-0.61-0.39-1.09-0.92-1.29-1.25L69.21,120.32z"/>
			<path class="st0" d="M76.74,121.09l-1.41-0.59l0.52-1.24l4.32,1.8l-0.52,1.24l-1.43-0.6l-1.79,4.28l-1.48-0.62L76.74,121.09z"/>
			<path class="st0" d="M81.33,121.54c0.52,0.02,1.2,0.12,1.89,0.26c1.12,0.23,1.79,0.56,2.28,1.08c0.55,0.58,0.82,1.39,0.59,2.47
				c-0.25,1.19-0.86,1.87-1.52,2.2c-0.75,0.37-1.75,0.39-2.89,0.15c-0.75-0.16-1.25-0.31-1.54-0.42L81.33,121.54z M81.94,126.47
				c0.08,0.03,0.22,0.06,0.33,0.08c1.01,0.22,1.88-0.18,2.15-1.49c0.24-1.14-0.33-1.82-1.27-2.02c-0.24-0.05-0.4-0.06-0.49-0.06
				L81.94,126.47z"/>
			<path class="st0" d="M92.74,125.11l0.03,1.04l-2.38,0.07l-0.03-1.04L92.74,125.11z"/>
			<path class="st0" d="M97.8,128.03l-0.23-0.93l0.6-0.87c0.89-1.27,1.32-1.99,1.19-2.57c-0.1-0.41-0.44-0.63-1.01-0.49
				c-0.47,0.12-0.83,0.46-1.09,0.75l-0.7-1.01c0.35-0.42,0.99-0.87,1.79-1.06c1.3-0.33,2.24,0.19,2.52,1.29
				c0.22,0.9-0.24,1.77-0.76,2.47l-0.44,0.57l0,0.02l1.95-0.49l0.32,1.27L97.8,128.03z"/>
			<path class="st0" d="M107.09,121.78c0.69,1.55,0.56,3.02-0.86,3.65c-1.51,0.67-2.66-0.41-3.27-1.79
				c-0.63-1.43-0.63-2.99,0.87-3.66C105.36,119.3,106.49,120.44,107.09,121.78z M104.41,122.98c0.5,1.14,0.96,1.52,1.35,1.35
				c0.37-0.16,0.38-0.76-0.12-1.9c-0.49-1.11-0.95-1.52-1.33-1.36C103.93,121.25,103.9,121.84,104.41,122.98z"/>
			<path class="st0" d="M110.19,123.35l-0.54-0.8l0.27-1.03c0.41-1.49,0.56-2.32,0.24-2.82c-0.23-0.35-0.63-0.44-1.11-0.11
				c-0.4,0.27-0.63,0.71-0.77,1.08l-1-0.71c0.19-0.52,0.64-1.15,1.32-1.61c1.11-0.75,2.17-0.59,2.81,0.36
				c0.52,0.76,0.38,1.75,0.13,2.59l-0.22,0.69l0.01,0.01l1.67-1.12l0.73,1.09L110.19,123.35z"/>
			<path class="st0" d="M113.83,115.15l-0.01,0.01l-0.47,1.16l-1.01-0.69l0.69-1.66l0.95-0.9l3.98,4.17l-1.11,1.06L113.83,115.15z"
				/>
		</g>
	</g>
	<g>
		<g>
			<path class="st0" d="M35.36,141.94l3.39-5.48l1.07,1.07l-1.49,2.16c-0.43,0.62-0.92,1.29-1.3,1.81l0.01,0.01
				c0.55-0.41,1.19-0.83,1.85-1.27l2.2-1.43l1.06,1.07l-1.52,2.22c-0.42,0.61-0.82,1.16-1.25,1.71l0.01,0.01
				c0.57-0.42,1.17-0.84,1.8-1.28l2.17-1.45l1.02,1.02l-5.58,3.28l-1.08-1.09l1.53-2.28c0.35-0.53,0.71-1.02,1.15-1.58l-0.01-0.01
				c-0.57,0.42-1.07,0.77-1.62,1.11l-2.33,1.48L35.36,141.94z"/>
			<path class="st0" d="M47.26,149l-1.82-1.42l-0.92,1.17l2.03,1.59l-0.71,0.92l-3.15-2.46l3.86-4.94l3.04,2.38l-0.71,0.92
				l-1.93-1.5l-0.8,1.03l1.82,1.42L47.26,149z"/>
			<path class="st0" d="M49.66,152.13c0.21,0.37,0.61,0.85,1.12,1.17c0.55,0.35,0.99,0.3,1.21-0.05c0.21-0.33,0.07-0.68-0.42-1.3
				c-0.69-0.87-0.96-1.72-0.47-2.49c0.57-0.9,1.76-1.11,3.01-0.33c0.6,0.38,0.97,0.78,1.19,1.12l-0.87,0.79
				c-0.15-0.23-0.43-0.63-0.95-0.95c-0.52-0.33-0.92-0.24-1.09,0.03c-0.21,0.34-0.01,0.67,0.51,1.36c0.72,0.94,0.84,1.71,0.37,2.45
				c-0.56,0.89-1.71,1.22-3.18,0.3c-0.6-0.38-1.1-0.92-1.29-1.28L49.66,152.13z"/>
			<path class="st0" d="M58.82,153.28l-1.52-0.75l0.53-1.07l4.32,2.14l-0.53,1.07l-1.54-0.76l-2.26,4.55l-1.27-0.63L58.82,153.28z"
				/>
			<path class="st0" d="M68.5,156.19c0.38,0.04,1.11,0.19,1.79,0.4c0.83,0.25,1.31,0.49,1.67,0.87c0.35,0.35,0.52,0.85,0.36,1.4
				c-0.16,0.53-0.62,0.93-1.37,0.98l-0.01,0.02c0.63,0.39,0.98,1.06,0.75,1.83c-0.16,0.55-0.55,0.9-1.01,1.09
				c-0.55,0.22-1.33,0.19-2.53-0.17c-0.67-0.2-1.15-0.4-1.44-0.53L68.5,156.19z M68.35,161.55c0.12,0.06,0.28,0.11,0.51,0.18
				c0.62,0.19,1.23,0.11,1.42-0.52c0.18-0.6-0.28-1.01-0.96-1.21l-0.46-0.14L68.35,161.55z M69.15,158.9l0.44,0.13
				c0.72,0.22,1.18,0.03,1.32-0.41c0.14-0.46-0.14-0.8-0.75-0.99c-0.3-0.09-0.47-0.12-0.59-0.13L69.15,158.9z"/>
			<path class="st0" d="M76.49,163.01l-0.72,1.5l-1.44-0.26l3-5.82l1.82,0.33l0.8,6.52l-1.5-0.27l-0.19-1.67L76.49,163.01z
				 M78.25,162.25l-0.15-1.38c-0.04-0.38-0.06-0.87-0.09-1.25l-0.02,0c-0.16,0.35-0.33,0.8-0.5,1.14L76.88,162L78.25,162.25z"/>
			<path class="st0" d="M83.53,165.69l0.38-6.26l1.65,0.1l1.16,2.37c0.33,0.68,0.65,1.49,0.89,2.21h0.03
				c-0.04-0.83-0.01-1.68,0.05-2.62l0.11-1.82l1.3,0.08L88.71,166l-1.48-0.09l-1.2-2.49c-0.33-0.7-0.69-1.52-0.95-2.28h-0.03
				c-0.01,0.83-0.04,1.72-0.11,2.74l-0.11,1.88L83.53,165.69z"/>
			<path class="st0" d="M97.92,165.41c-0.43,0.18-1.25,0.43-2.07,0.47c-1.14,0.07-1.98-0.17-2.59-0.69c-0.6-0.51-0.97-1.3-1.02-2.23
				c-0.11-2.08,1.33-3.35,3.38-3.48c0.81-0.05,1.44,0.07,1.76,0.2l-0.23,1.15c-0.35-0.13-0.79-0.22-1.47-0.18
				c-1.18,0.07-2.04,0.79-1.96,2.15c0.08,1.29,0.93,2,2.09,1.93c0.32-0.02,0.58-0.07,0.69-0.13l-0.08-1.31l-0.97,0.05l-0.06-1.1
				l2.34-0.14L97.92,165.41z"/>
			<path class="st0" d="M102.93,163.4l-0.15,1.66l-1.44,0.26l0.79-6.51l1.82-0.33l3.02,5.83l-1.5,0.27l-0.76-1.5L102.93,163.4z
				 M104.32,162.08l-0.62-1.24c-0.17-0.35-0.36-0.79-0.52-1.13l-0.02,0c-0.03,0.38-0.03,0.87-0.07,1.24l-0.14,1.38L104.32,162.08z"
				/>
			<path class="st0" d="M108.66,157.43l1.36-0.4l1.43,4.88l2.39-0.7l0.33,1.14l-3.75,1.1L108.66,157.43z"/>
			<path class="st0" d="M118.1,157.05l0.34,0.88l-2.27,0.88l-0.34-0.88L118.1,157.05z"/>
			<path class="st0" d="M121.2,152.75l2.69,5.66l-1.28,0.61l-2.69-5.66L121.2,152.75z"/>
			<path class="st0" d="M127.37,156.65l-3.21-5.38l1.42-0.84l2.3,1.31c0.66,0.37,1.38,0.86,1.98,1.32l0.02-0.02
				c-0.5-0.67-0.95-1.38-1.44-2.19l-0.94-1.57l1.12-0.67l3.21,5.38l-1.28,0.76l-2.39-1.39c-0.67-0.39-1.43-0.87-2.07-1.34
				l-0.03,0.02c0.46,0.69,0.93,1.44,1.46,2.32l0.97,1.62L127.37,156.65z"/>
			<path class="st0" d="M131.34,146.85c0.36-0.39,0.87-0.84,1.43-1.28c0.94-0.73,1.69-1.03,2.44-1.04c0.81-0.02,1.6,0.34,2.28,1.22
				c0.73,0.95,0.9,1.87,0.73,2.64c-0.19,0.84-0.82,1.66-1.79,2.41c-0.58,0.45-1.03,0.74-1.33,0.91L131.34,146.85z M135.6,150.03
				c0.11-0.06,0.27-0.18,0.41-0.28c1.02-0.78,1.25-1.85,0.34-3.04c-0.79-1.03-1.82-1.11-2.78-0.36c-0.24,0.19-0.39,0.34-0.48,0.44
				L135.6,150.03z"/>
			<path class="st0" d="M138.92,140.38l4.29,4.57l-1.03,0.97l-4.29-4.57L138.92,140.38z"/>
			<path class="st0" d="M145.74,140.06l0.91,1.4l-0.97,1.1l-3.43-5.58l1.23-1.39l5.99,2.69l-1.01,1.14l-1.52-0.71L145.74,140.06z
				 M146.01,138.16l-1.26-0.59c-0.35-0.16-0.77-0.39-1.11-0.56l-0.01,0.02c0.22,0.31,0.51,0.7,0.71,1.01l0.75,1.16L146.01,138.16z"
				/>
		</g>
	</g>
	<polygon class="st0" points="58.68,84.56 59.99,87.2 62.9,87.63 60.79,89.68 61.29,92.58 58.68,91.21 56.07,92.58 56.57,89.68 
		54.46,87.63 57.38,87.2 	"/>
	<polygon class="st0" points="122.87,84.58 124.18,87.23 127.09,87.65 124.98,89.7 125.48,92.61 122.87,91.23 120.27,92.61 
		120.76,89.7 118.65,87.65 121.57,87.23 	"/>
	<circle class="st0" cx="161.89" cy="108.38" r="3.11"/>
	<circle class="st0" cx="19.99" cy="108.38" r="3.11"/>
</g>
</svg>
