<?xml version="1.0" encoding="utf-8"?>
<!-- Generator: Adobe Illustrator 24.0.1, SVG Export Plug-In . SVG Version: 6.00 Build 0)  -->
<svg version="1.1" id="Layer_1" xmlns="http://www.w3.org/2000/svg" xmlns:xlink="http://www.w3.org/1999/xlink" x="0px" y="0px"
	 viewBox="0 0 280 125" style="enable-background:new 0 0 280 125;" xml:space="preserve">
<style type="text/css">
	.st0{display:none;fill:none;stroke:#0A509F;stroke-width:0.7148;stroke-miterlimit:10;}
	.st1{display:none;fill:#0A509F;}
	.st2{fill-rule:evenodd;clip-rule:evenodd;fill:#0A509F;}
	.st3{fill:#0A509F;}
	.st4{fill:none;stroke:#0A509F;stroke-width:1.3814;stroke-miterlimit:10;}
</style>
<path class="st0" d="M204.5,62.12c0,33.06-26.8,59.88-59.88,59.88S84.75,95.2,84.75,62.12s26.8-59.88,59.88-59.88
	S204.5,29.06,204.5,62.12z"/>
<path class="st1" d="M100,36.21c-0.24,0.38-0.75,0.53-1.17,0.66c0.17,0.39,0.27,0.8,0.31,1.22c0.86-0.07,1.72-0.2,2.56-0.4
	l0.13,0.67l-3.51,0.31c-0.37,0.03-1.03,0.02-1.32-0.16c-0.2-0.16-0.25-0.44-0.12-0.65c0.14-0.23,0.61-0.28,0.69-0.4
	c0.02-0.03-0.02-0.09-0.09-0.13l-1.61-0.99l-0.99,1.58l-1.26-0.03l4.14-6.6l1.26,0.03l-0.68,1.09l4.91,3.08l-1.33,0.61l-1.47-1
	C100.38,35.51,100.23,35.89,100,36.21 M96.47,35.33l1.9,1.19c0.24-0.21,0.45-0.46,0.61-0.74c0.11-0.17,0.44-1.16,0.37-1.33
	l-1.67-1.05L96.47,35.33z"/>
<path class="st1" d="M105.08,37.86c-0.52,0.64-1.44,0.79-2.14,0.35c-0.63-0.46-0.74-1.27-0.24-1.97c0.44-0.61,1.49-1.11,4-1.31
	l0.05,0.54c-2.5,0.18-2.89,0.39-3.17,0.78c-0.3,0.47-0.21,1.09,0.2,1.47c0.23,0.17,0.45,0.22,0.56,0.06
	c0.11-0.16-0.03-0.92-0.15-1.22h1.09c0.13,0.46,0.05,0.94-0.21,1.34"/>
<path class="st1" d="M104.44,29.94c-0.22,0.27-0.7,0.53-1.41,0.7c-0.27,1.25-0.19,1.69,0.18,1.99c0.45,0.36,1.01,0.31,1.26,0
	c0.36-0.45,0.24-0.79,0.13-0.87s-0.47-0.08-0.59-0.17c-0.14-0.18-0.14-0.42-0.02-0.61c0.2-0.24,1.25-0.61,1.53-0.39
	c0.25,0.22,0.38,0.54,0.35,0.87l2.17,0.34l-0.09,0.66l-2.16-0.53c-0.1,0.3-0.25,0.58-0.45,0.82c-0.59,0.73-2.42,1.16-3.19,0.54
	c-0.47-0.38-0.61-0.79-0.27-2.2c-1.19,0.36-1.7,0.39-2.18,0c-0.63-0.52-0.75-1.44-0.26-2.09c0.68-0.84,2.3-1.04,3.08-0.41
	c0.45,0.4,0.65,1.01,0.53,1.59c0.09-0.07,0.17-0.15,0.24-0.24c0.48-0.64,0.76-1.4,0.81-2.19l1.02,0.82
	c-0.13,0.49-0.35,0.95-0.66,1.35 M101.47,29.01c-0.21-0.23-0.56-0.24-0.79-0.03c-0.03,0.03-0.05,0.05-0.08,0.09
	c-0.32,0.39-0.3,0.95,0.05,1.31c0.35,0.27,0.81,0.34,1.22,0.19c0.16-0.56-0.02-1.16-0.45-1.55"/>
<path class="st1" d="M106.97,28.4c0.11,0.11,0.11,0.29,0.01,0.4c-0.01,0.01-0.03,0.03-0.04,0.04c-0.24,0.25-1.95,0.23-2.28-0.09
	c-0.11-0.13-0.1-0.32,0.03-0.43l0.26-0.26l-1.67-1.67l-0.92,0.92l-1.22-0.31l4.93-4.94l1.22,0.31l-0.92,0.92l4.11,4.08l-1.43,0.31
	l-1.03-1.12L106.56,28L106.97,28.4z M104.1,25.54l1.7,1.69l1.43-1.44l-1.69-1.69L104.1,25.54z"/>
<path class="st1" d="M113.17,23.92c0.16,0.27,0.24,0.58,0.23,0.89v1.71l-0.61-0.19c0-0.33,0-1.03-0.12-1.16s0-0.11-0.86-0.22
	l0.2-1.39c0.93,0.14,0.97,0.14,1.16,0.37"/>
<path class="st1" d="M120.94,15.76c-0.09,0.02-0.18,0.05-0.27,0.1c-0.57,0.31-0.92,0.98-0.74,2.14l-1.15-0.11
	c-0.05-0.23-0.08-0.46-0.08-0.7c-0.28-0.15-0.61-0.15-0.89,0c-0.53,0.28-0.65,0.97-0.33,1.56c0.38,0.72,1.29,1,2.7,1.27l-0.29,0.69
	c-2.28-0.59-3.19-1.22-3.57-1.96c-0.45-0.85-0.15-1.92,0.58-2.3c0.46-0.24,1.02-0.19,1.85,0.19c0.05-0.5,0.31-0.96,0.71-1.26
	c0.38-0.16,0.8-0.19,1.2-0.09l-0.69-1.3l-5.36,2.86l-1.08-0.65l7.53-4.01l1.07,0.65l-1.12,0.61l2.72,5.11l-1.45-0.15L120.94,15.76z"
	/>
<path class="st1" d="M126.52,16.28c-1.03,0.41-2.44-0.45-2.75-1.2c-0.18-0.46-0.1-0.83,0.43-1.32v-0.02
	c-0.82,0.06-1.33-0.1-1.63-0.86l-0.56,0.22l-1-0.76l4-1.6l1,0.76l-2.08,0.83c-0.12,0.19,0,0.45,0.04,0.59
	c0.15,0.27,0.43,0.45,0.75,0.48c0.21-0.15,0.44-0.27,0.68-0.37c0.3,0.19,0.58,0.41,0.82,0.67c0.04,0.11,0,0.16-0.15,0.22
	c-1.16,0.46-1.46,1.03-1.29,1.45c0.08,0.2,0.44,0.31,0.98,0.09s1.19-0.92,1.76-2.04l0.46,1.15
	C127.59,15.44,127.18,16.02,126.52,16.28"/>
<polygon class="st1" points="127.9,16.17 126.43,11.41 125.54,11.7 124.59,10.88 128.04,9.74 128.99,10.57 127.51,11.05 
	129.33,16.56 "/>
<path class="st1" d="M129.41,16.5c0.79-0.2,1.61,0.22,1.9,0.98c0.18,0.61-0.18,1.5-1.17,1.8c-1.04,0.31-2.34-0.04-3.86-0.77
	l0.25-0.46c1.18,0.64,2.32,0.86,2.88,0.7c0.8-0.24,1.22-1.04,1.11-1.41c-0.09-0.28-0.23-0.41-0.38-0.38
	c-0.15,0.03-0.49,0.53-0.72,1.01l-1.05-0.5C128.56,17,128.94,16.65,129.41,16.5"/>
<path class="st1" d="M139,12.8c-0.35,0.02-0.71-0.01-1.05-0.09l-0.61-0.77c0.14,0,0.34,0,0.52-0.02c0.31-0.04,0.41-0.23,0.35-0.68
	l-0.33-2.42l-1.77,0.24l0.45,3.36c0.04,0.31,0.17,0.61,1.22,1.08l3.08,1.35c0.34,0.12,0.59,0.4,0.67,0.75
	c-0.02,0.38-0.14,0.74-0.36,1.05l-1.16-0.61c0.08-0.17,0.13-0.35,0.13-0.53c-0.04-0.22-0.19-0.4-0.4-0.48
	c-0.34-0.18-3.5-1.5-3.76-1.63c-0.43-0.22-0.54-0.43-0.57-0.69l-0.47-3.49l-0.92,0.12l-0.78-0.98l6.7-0.9l0.78,0.98l-1.67,0.22
	l0.44,3.25C139.58,12.55,139.41,12.74,139,12.8"/>
<path class="st1" d="M143.55,12.97c-1.17,0.02-2.37-1.18-2.39-2.2c-0.02-0.92,0.85-1.71,2.07-1.73c0.35-0.02,0.7,0.05,1.02,0.2
	c0.37,0.27,0.7,0.58,1.01,0.92l-0.03-1.76l-4.7,0.08l-0.66-1.08l7.28-0.12l0.66,1.07l-1.4,0.02l0.1,5.8l-1.22-0.79l0.05-1.18
	c-0.67,0.51-1.22,0.76-1.76,0.77 M145.29,10.96v-0.16c-0.51-0.44-1.16-0.68-1.83-0.68c-0.67,0.03-1.2,0.59-1.17,1.27
	c0,0,0,0.01,0,0.01c-0.03,0.35,0.23,0.66,0.58,0.68c0.02,0,0.05,0,0.07,0C143.48,12.09,144.65,11.42,145.29,10.96"/>
<rect x="146.57" y="5.13" transform="matrix(0.7412 -0.6713 0.6713 0.7412 34.2655 100.2376)" class="st1" width="1.09" height="1.11"/>
<path class="st1" d="M154.75,13.43c-0.04,0.17-0.18,0.25-0.38,0.21c-0.34-0.07-1.26-1.53-1.16-1.96c0.05-0.16,0.21-0.25,0.37-0.21
	l0.36,0.08l0.49-2.31l-1.26-0.26l-0.41-1.19l6.81,1.42l0.41,1.19l-1.26-0.26l-1.19,5.67l-1.02-1.04l0.37-1.47l-2.01-0.42
	L154.75,13.43z M155.58,9.46l-0.49,2.34l1.99,0.42l0.49-2.34L155.58,9.46z"/>
<path class="st1" d="M161.18,15.69c-1.13-0.35-1.77-1.74-1.53-2.49c0.16-0.49,0.57-0.81,1.45-0.75v-0.02
	c-0.64-0.39-1.04-1.18-0.86-1.78c0.21-0.68,0.95-1.08,1.8-0.81c0.61,0.19,1.2,0.85,0.96,1.62c-0.17,0.55-0.84,0.8-1.69,0.53
	c-0.03,0.09,0.04,0.19,0.17,0.28c0.15,0.1,0.32,0.17,0.49,0.22c0.22,0.07,0.45,0.2,0.54,0.22l0.25,1.2
	c-0.14-0.06-0.37-0.16-0.56-0.22c-1.33-0.42-1.83-0.09-1.91,0.2c-0.07,0.23,0.06,0.52,0.85,0.76c0.64,0.2,1.83-0.03,2.8-0.53
	l-0.41,1.31C162.8,15.79,161.97,15.88,161.18,15.69 M161.58,11.7c0.35,0.14,0.74-0.02,0.88-0.37c0,0,0-0.01,0.01-0.01
	c0.09-0.31-0.1-0.64-0.42-0.72c0,0,0,0,0,0c-0.39-0.09-0.78,0.15-0.87,0.54c-0.03,0.12-0.02,0.24,0.01,0.36
	C161.3,11.59,161.44,11.66,161.58,11.7"/>
<path class="st1" d="M165.07,16.96c-1.03-0.44-1.55-1.92-1.2-3.56c0.48,0.09,0.97,0.13,1.46,0.11c0.16-0.01,0.3-0.08,0.4-0.21
	c0.09-0.26,0.11-0.54,0.05-0.82l-1.87-0.8l-0.16-1.22l6.61,2.84l0.16,1.25l-1.19-0.52l-2.29,5.32l-0.8-1.22l0.53-1.06
	c-0.58,0.12-1.17,0.08-1.73-0.1 M166.44,12.78c0.02,0.59-0.02,1.18-0.13,1.76c-0.1,0.22-0.36,0.28-1.2,0.14
	c-0.36-0.06-0.57,0-0.68,0.25c-0.14,0.31-0.02,0.63,0.55,0.88c0.44,0.19,1.67,0.17,2.33-0.05l0.95-2.21L166.44,12.78z"/>
<path class="st1" d="M170.44,19.23c-0.08,0.14-0.26,0.18-0.39,0.1c-0.01-0.01-0.03-0.02-0.04-0.03c-0.31-0.17-0.72-1.83-0.49-2.23
	c0.09-0.14,0.28-0.18,0.42-0.08l0.31,0.19l1.19-2.04l-1.11-0.65v-1.26l6.01,3.51v1.26l-1.11-0.65l-2.92,5.01l-0.65-1.31l0.82-1.28
	l-1.77-1.04L170.44,19.23z M172.48,15.73l-1.2,2.06l1.75,1.02l1.2-2.06L172.48,15.73z"/>
<path class="st1" d="M180.81,19.97l4.76,4.33l-0.25,1.22l-1.59-1.44c-0.03,0.61-0.17,1.3-0.35,1.49s-0.67,0.28-1.14,0.13
	c0.31,1.07,0.25,1.53-0.18,1.99c-0.63,0.69-1.7,0.59-2.39-0.04c-0.83-0.76-1.08-1.83-0.61-3.93l0.55,0.06
	c-0.36,1.6-0.2,2.24,0.39,2.77c0.42,0.43,1.11,0.44,1.55,0.04c0.22-0.35,0.25-0.79,0.06-1.16c-0.35-0.13-0.68-0.32-0.97-0.54
	c-0.12-0.11-0.2-0.26-0.21-0.42c-0.02-0.33,0.04-0.66,0.16-0.96c0.11-0.13,0.2-0.11,0.35,0.02l0.71,0.65
	c0.54,0.34,1.18,0.46,1.39,0.23c0.12-0.26,0.15-0.56,0.11-0.84l-2.6-2.37L180.81,19.97z"/>
<path class="st1" d="M185.05,32.89l0.09-0.07c-0.76-0.19-1.46-0.57-2.04-1.1c-0.72-0.84-0.63-2.48-0.04-2.99
	c0.19-0.17,0.44-0.24,0.69-0.2c0-0.64,0.24-1.25,0.69-1.7c0.45-0.38,0.92-0.28,1.4,0.31l0.96,1.12l0.48-0.41l-2.08-2.44l0.4-1.19
	l5.24,6.14l-0.4,1.19l-0.83-0.97l-4.41,3.76L185.05,32.89z M186.55,29.53l-1.06-1.24c-0.4-0.47-0.72-0.55-0.98-0.33
	c-0.19,0.17-0.26,0.44-0.18,0.68c0.6,0.3,1.13,0.73,1.54,1.25c-0.04,0.36-0.2,0.69-0.46,0.95c-0.1,0.08-0.38,0.05-0.79-0.44
	c-0.16-0.2-0.31-0.42-0.43-0.64c-0.28-0.2-0.64-0.23-0.95-0.08c-0.2,0.17-0.17,0.52,0.26,1.01c0.38,0.45,1.47,0.99,2.61,1.31
	l2.73-2.34l-0.89-1.04l-1.03,0.88C186.77,29.63,186.62,29.63,186.55,29.53"/>
<path class="st1" d="M188.25,35.73c-0.13,0.09-0.31,0.05-0.4-0.08c-0.01-0.01-0.02-0.03-0.02-0.04c-0.19-0.31,0.18-1.96,0.57-2.21
	c0.15-0.08,0.33-0.03,0.41,0.12l0.2,0.31l1.98-1.29l-0.7-1.08l0.55-1.13l3.81,5.83l-0.56,1.13l-0.7-1.08l-4.85,3.17v-1.47l1.3-0.78
	l-1.12-1.72L188.25,35.73z M191.64,33.51l-2,1.31l1.11,1.7l2-1.3L191.64,33.51z"/>
<polygon class="st1" points="99.3,72.46 99.75,74.56 95.02,76.62 95.03,76.64 100.18,76.59 100.63,78.68 93.63,80.18 93.36,78.88 
	98.94,77.69 98.94,77.66 93.08,77.62 92.85,76.52 98.17,74.08 98.17,74.06 92.58,75.25 92.3,73.96 "/>
<path class="st1" d="M99.26,79.91l0.42,1.31l-5.13,1.66l-0.42-1.31L99.26,79.91z M101.02,79.35l0.42,1.31l-1.12,0.37l-0.42-1.32
	L101.02,79.35z"/>
<path class="st1" d="M99.13,85.2c0.48-0.2,0.97-0.5,0.77-0.98c-0.26-0.63-0.86-0.51-2.01-0.04c-1.22,0.5-1.7,0.82-1.47,1.4
	c0.17,0.43,0.61,0.47,1.42,0.15l0.5,1.22c-1.31,0.53-2.26,0.28-2.82-1.07c-0.52-1.28-0.15-2.17,1.85-2.98
	c2-0.81,2.97-0.22,3.45,0.96c0.48,1.18-0.02,2.1-1.2,2.58L99.13,85.2z"/>
<path class="st1" d="M101.72,86.25l0.6,1.19l-0.64,0.31v0.02c0.59,0,1.07,0.21,1.33,0.72c0.04,0.08,0.07,0.15,0.1,0.23l-1.18,0.6
	c-0.05-0.13-0.11-0.27-0.17-0.39c-0.19-0.48-0.74-0.72-1.22-0.53c-0.04,0.02-0.08,0.03-0.11,0.05l-2.89,1.46l-0.61-1.22
	L101.72,86.25z"/>
<path class="st1" d="M104.32,90.72c0.9,1.4,0.31,2.31-1.3,3.29c-1.6,0.98-2.7,1.03-3.53-0.31c-0.9-1.4-0.31-2.31,1.3-3.3
	c1.61-0.98,2.69-1.03,3.53,0.32 M100.3,93.21c0.31,0.48,0.86,0.34,2-0.36c1.14-0.71,1.53-1.15,1.22-1.63
	c-0.36-0.58-1.06-0.21-2,0.36C100.59,92.16,99.94,92.62,100.3,93.21"/>
<path class="st1" d="M103.45,96.51l-1.06,0.76c-0.86,0.61-1.62,0.86-2.32,0.05l0.57-0.41c0.28,0.22,0.68,0.2,0.95-0.04l0.13-0.09
	l-0.31-0.42l1.27-0.92L103.45,96.51z"/>
<path class="st1" d="M106.81,99.59l-0.15,0.14c-0.49,0.46-0.68,0.89-0.16,1.45c0.29,0.35,0.81,0.39,1.16,0.09
	c0.02-0.02,0.04-0.04,0.06-0.06c0.48-0.44,0.43-0.85,0.03-1.77c-0.55-1.24-0.56-2.03,0.31-2.84c1.02-0.94,2.14-0.8,3.05,0.2
	c0.87,0.94,1.1,2,0.09,2.93l-0.15,0.13l-0.94-1.02c0.49-0.46,0.61-0.89,0.25-1.29c-0.24-0.33-0.7-0.41-1.03-0.17
	c-0.05,0.04-0.1,0.08-0.14,0.13c-0.32,0.31-0.43,0.58-0.21,1.2l0.4,1.14c0.39,1.12,0.17,1.7-0.47,2.29
	c-1.11,1.03-2.24,0.81-3.3-0.34c-1.11-1.2-0.98-2.19,0-3.08l0.21-0.2L106.81,99.59z"/>
<path class="st1" d="M111.73,100.3l1.02,0.85l-0.35,0.42h0.02c0.52-0.16,1.09-0.03,1.49,0.34c0.47,0.33,0.64,0.94,0.4,1.46h0.02
	c0.52-0.29,1.17-0.21,1.6,0.21c0.7,0.58,0.67,1.3,0,2.1l-2.5,3.01l-1.06-0.88l2.41-2.89c0.31-0.35,0.33-0.64,0.03-0.89
	c-0.3-0.25-0.75-0.23-1.14,0.25l-2.27,2.72l-1.06-0.88l2.41-2.89c0.29-0.35,0.33-0.64,0.03-0.89c-0.3-0.25-0.75-0.23-1.14,0.25
	l-2.27,2.72l-1.06-0.88L111.73,100.3z"/>
<path class="st1" d="M116.65,106.35l0.07-0.11c0.67-1.05,1.61-0.94,2.49-0.38c1.38,0.88,1.28,1.63,0.76,2.44l-1.53,2.39
	c-0.22,0.28-0.36,0.62-0.42,0.97l-1.11-0.7c0.03-0.19,0.08-0.38,0.16-0.57h-0.02c-0.57,0.31-0.98,0.21-1.53-0.15
	c-0.81-0.52-0.66-1.39-0.27-2c0.54-0.86,1.11-0.98,2.05-0.69l0.77,0.24c0.41,0.13,0.61,0.07,0.8-0.24c0.22-0.23,0.2-0.6-0.03-0.81
	c-0.05-0.04-0.1-0.08-0.16-0.1c-0.27-0.2-0.66-0.14-0.85,0.14c-0.02,0.03-0.05,0.07-0.06,0.11l-0.08,0.13L116.65,106.35z
	 M118.22,108.59c-0.22,0.01-0.44-0.02-0.64-0.09c-0.54-0.2-0.87-0.09-1.13,0.31c-0.22,0.35-0.28,0.71,0.04,0.92
	c0.37,0.26,0.88,0.17,1.14-0.2c0.01-0.01,0.02-0.03,0.03-0.04L118.22,108.59z"/>
<rect x="117.79" y="108.7" transform="matrix(0.4732 -0.881 0.881 0.4732 -32.4332 164.5544)" class="st1" width="7.15" height="1.38"/>
<rect x="119.96" y="109.79" transform="matrix(0.4288 -0.9034 0.9034 0.4288 -29.2452 174.712)" class="st1" width="7.15" height="1.38"/>
<path class="st1" d="M130.61,114.48c0.25-0.28,0.44-0.6,0.57-0.96l1.19,0.38c-0.25,0.72-0.72,1.35-1.34,1.8l0.5,1.55l-1.46-0.48
	l-0.21-0.64c-0.57,0.31-1.24,0.36-1.85,0.14c-1.73-0.55-1.71-1.87-1.47-2.63c0.24-0.76,0.98-1.28,2-1.53l-0.13-0.43
	c-0.2-0.68-0.19-0.99-0.07-1.38c0.28-0.89,1.17-1.21,2.19-0.88c1.17,0.37,1.5,1.17,1.25,1.96c-0.21,0.68-0.76,1.08-1.74,1.39
	L130.61,114.48z M128.91,113.13c-0.64,0.24-0.92,0.51-1.06,0.93c-0.15,0.5,0.13,1.04,0.63,1.19c0.01,0,0.03,0.01,0.04,0.01
	c0.35,0.12,0.73,0.06,1.02-0.15L128.91,113.13z M129.58,111.48l0.09,0.28l0.31-0.13c0.3-0.09,0.55-0.31,0.67-0.61
	c0.11-0.29-0.03-0.62-0.33-0.74c-0.03-0.01-0.06-0.02-0.09-0.03c-0.29-0.12-0.62,0.02-0.73,0.3c-0.01,0.02-0.02,0.04-0.02,0.07
	C129.41,110.91,129.45,111.21,129.58,111.48"/>
<polygon class="st1" points="136,110.94 138.12,111.19 138.54,116.33 138.56,116.33 140.18,111.44 142.3,111.7 141.45,118.8 
	140.14,118.64 140.82,112.97 140.8,112.97 138.85,118.49 137.74,118.35 137.16,112.53 137.14,112.53 136.46,118.2 135.15,118.04 "/>
<path class="st1" d="M144.17,116.32v0.43c0,0.63,0.19,1.25,0.7,1.24c0.46,0,0.64-0.36,0.71-1.02l1.24-0.02
	c-0.03,1.25-0.61,1.96-1.92,1.99c-2,0.03-2.11-1.51-2.14-2.85c-0.02-1.44,0.24-2.79,2.1-2.82c1.61-0.02,1.99,1.05,2.02,2.7v0.31
	L144.17,116.32z M145.57,115.48c-0.04-0.82-0.15-1.28-0.72-1.27c-0.57,0.01-0.7,0.58-0.69,1.08v0.21L145.57,115.48z"/>
<path class="st1" d="M150.71,117.88h-0.02c-0.19,0.48-0.63,0.8-1.15,0.83c-1.13,0.11-1.73-0.66-1.93-2.65
	c-0.2-1.99,0.23-2.87,1.36-2.99c0.47-0.06,0.94,0.14,1.22,0.52h0.02l-0.23-2.25l1.37-0.14l0.72,7.12l-1.32,0.13L150.71,117.88z
	 M149.89,117.61c0.61-0.06,0.67-0.67,0.55-1.83s-0.31-1.75-0.92-1.69c-0.61,0.06-0.66,0.67-0.54,1.83
	C149.1,117.09,149.28,117.68,149.89,117.61"/>
<path class="st1" d="M152.08,110.96l1.36-0.24l0.21,1.16l-1.36,0.24L152.08,110.96z M152.4,112.78l1.36-0.24l0.95,5.31l-1.36,0.24
	L152.4,112.78z"/>
<path class="st1" d="M158.51,116.31h-0.02c-0.14,0.55-0.58,0.97-1.14,1.09c-0.83,0.22-1.45-0.11-1.71-1.14l-1.01-3.87l1.34-0.35
	l0.93,3.6c0.13,0.52,0.36,0.68,0.76,0.58c0.46-0.12,0.64-0.46,0.48-1.05l-0.9-3.46l1.34-0.35l1.36,5.22l-1.28,0.33L158.51,116.31z"
	/>
<path class="st1" d="M159.36,111.2l1.22-0.5l0.21,0.51h0.02c0.1-0.54,0.49-0.97,1-1.15c0.51-0.26,1.13-0.12,1.48,0.33h0.02
	c-0.01-0.6,0.37-1.13,0.94-1.31c0.85-0.34,1.46,0.02,1.85,0.99l1.47,3.63l-1.28,0.52l-1.41-3.49c-0.17-0.42-0.4-0.6-0.76-0.45
	c-0.41,0.17-0.56,0.55-0.32,1.13l1.33,3.28l-1.28,0.52l-1.41-3.49c-0.17-0.42-0.4-0.59-0.76-0.45c-0.41,0.17-0.56,0.55-0.32,1.13
	l1.33,3.28l-1.27,0.51L159.36,111.2z"/>
<polygon class="st1" points="170.75,103.51 171.38,104.5 169.22,105.87 170.12,107.29 172.15,106.01 172.78,107.01 170.75,108.29 
	171.78,109.92 174.02,108.5 174.65,109.51 171.19,111.69 167.37,105.64 "/>
<path class="st1" d="M172.23,104.61l1.04-0.81l0.39,0.49l0,0c-0.09-0.56,0.14-1.13,0.61-1.45c0.68-0.53,1.37-0.47,2.03,0.36
	l2.47,3.15l-1.09,0.85l-2.29-2.93c-0.33-0.43-0.61-0.48-0.92-0.23c-0.31,0.25-0.4,0.68-0.02,1.15l2.2,2.82l-1.09,0.85L172.23,104.61
	z"/>
<path class="st1" d="M175.23,100.19l1.01-0.94l1.05,1.13l0.59-0.54l0.64,0.69l-0.59,0.54l1.98,2.14c0.29,0.31,0.47,0.37,0.76,0.1
	c0.08-0.08,0.16-0.16,0.22-0.23l0.65,0.71c-0.19,0.23-0.4,0.45-0.61,0.66c-0.8,0.73-1.17,0.61-1.91-0.18l-2.09-2.27l-0.51,0.48
	l-0.65-0.7l0.52-0.48L175.23,100.19z"/>
<path class="st1" d="M181.1,100.69l0.31,0.31c0.46,0.43,1.03,0.72,1.38,0.35c0.35-0.37,0.18-0.72-0.24-1.22l0.84-0.92
	c0.89,0.89,0.99,1.81,0.1,2.75c-1.36,1.47-2.55,0.48-3.53-0.43c-1.06-0.98-1.85-2.1-0.58-3.46c1.09-1.18,2.14-0.71,3.35,0.41
	l0.23,0.21L181.1,100.69z M181.46,99.1c-0.61-0.54-1.03-0.78-1.41-0.36c-0.39,0.42-0.07,0.92,0.31,1.25l0.16,0.14L181.46,99.1z"/>
<path class="st1" d="M181.21,96.21l0.82-1.04l0.57,0.45h0.02c-0.24-0.54-0.26-1.06,0.09-1.51c0.05-0.07,0.11-0.13,0.17-0.18
	l1.04,0.82c-0.09,0.1-0.2,0.22-0.28,0.33c-0.36,0.37-0.34,0.96,0.03,1.32c0.03,0.03,0.07,0.06,0.1,0.08l2.54,2l-0.86,1.09
	L181.21,96.21z"/>
<path class="st1" d="M183.22,93.65l0.73-1.1l0.48,0.31v-0.02c-0.25-0.44-0.22-1,0.08-1.41c0.61-0.94,1.6-0.92,3.27,0.17
	c1.67,1.09,2.08,1.99,1.46,2.94c-0.25,0.4-0.7,0.64-1.17,0.61v0.02l1.89,1.24l-0.76,1.17L183.22,93.65z M188.11,94.34
	c0.33-0.5-0.11-0.93-1.09-1.57c-0.98-0.64-1.55-0.87-1.88-0.37c-0.33,0.5,0.1,0.94,1.08,1.58
	C187.21,94.62,187.77,94.85,188.11,94.34"/>
<path class="st1" d="M185.84,89.52l0.64-1.17l0.64,0.34v-0.02c-0.33-0.49-0.44-1-0.17-1.5c0.04-0.07,0.09-0.14,0.13-0.21l1.16,0.63
	c-0.07,0.12-0.16,0.24-0.22,0.37c-0.29,0.41-0.19,0.99,0.22,1.28c0.05,0.03,0.09,0.06,0.14,0.08l2.85,1.53l-0.66,1.22L185.84,89.52z
	"/>
<path class="st1" d="M185.72,85.8l0.58-1.25l1.07,0.5l-0.58,1.25L185.72,85.8z M187.39,86.58l0.58-1.25l4.89,2.27l-0.58,1.26
	L187.39,86.58z"/>
<path class="st1" d="M192.11,84.87l0.17,0.06c0.33,0.18,0.75,0.06,0.93-0.27c0.02-0.04,0.04-0.08,0.05-0.12
	c0.17-0.29,0.06-0.67-0.23-0.83c-0.04-0.02-0.08-0.04-0.12-0.05c-0.28-0.1-0.59,0-0.75,0.25l-0.68,0.79
	c-0.52,0.61-1.1,0.81-1.81,0.54c-0.83-0.32-1.32-1.11-0.81-2.44c0.45-1.17,1.18-1.53,2.09-1.17l0.2,0.08l-0.44,1.16
	c-0.51-0.19-0.82-0.14-0.98,0.28c-0.15,0.29-0.04,0.64,0.25,0.79c0.02,0.01,0.04,0.02,0.05,0.02c0.24,0.09,0.5,0.04,0.8-0.34
	l0.56-0.68c0.58-0.71,1.11-0.85,1.87-0.57c1.06,0.41,1.28,1.39,0.87,2.48c-0.56,1.45-1.34,1.61-2.31,1.24l-0.18-0.07L192.11,84.87z"
	/>
<path class="st1" d="M192.99,80.11l0.42,0.12c0.61,0.17,1.25,0.17,1.39-0.31c0.14-0.48-0.16-0.72-0.78-0.98l0.33-1.2
	c1.19,0.38,1.71,1.15,1.36,2.41c-0.54,1.93-2.04,1.59-3.34,1.22c-1.39-0.38-2.61-1.01-2.11-2.81c0.43-1.55,1.57-1.61,3.16-1.17
	l0.31,0.08L192.99,80.11z M192.57,78.53c-0.8-0.19-1.27-0.22-1.43,0.33c-0.16,0.55,0.36,0.84,0.84,0.97l0.2,0.05L192.57,78.53z"/>
<path class="st1" d="M194.79,75.72l0.18,0.03c0.36,0.12,0.75-0.08,0.87-0.45c0.01-0.04,0.02-0.08,0.03-0.12
	c0.11-0.32-0.06-0.67-0.38-0.78c-0.04-0.01-0.08-0.02-0.13-0.03c-0.29-0.05-0.58,0.11-0.69,0.38l-0.52,0.9
	c-0.4,0.7-0.92,1.01-1.68,0.87c-0.88-0.16-1.5-0.84-1.25-2.24c0.22-1.22,0.87-1.72,1.83-1.55l0.22,0.04l-0.22,1.22
	c-0.53-0.09-0.82,0-0.92,0.46c-0.09,0.31,0.09,0.64,0.4,0.73c0.02,0.01,0.04,0.01,0.06,0.01c0.26,0.05,0.5-0.05,0.73-0.48l0.42-0.77
	c0.44-0.81,0.93-1.04,1.73-0.92c1.12,0.2,1.53,1.13,1.32,2.27c-0.27,1.53-1.02,1.83-2.04,1.65l-0.19-0.03L194.79,75.72z"/>
<path class="st2" d="M20.17,13.78L20.17,13.78c2.25-0.4,3.76-2.35,6.29-1.94c1.07,1.77,4,2.37,6.01,2.88
	c0.62-1.63,2.17-1.91,1.86-4.89c-0.88-2.03,0.69-3.04,4.53-3.39c3.39-1.07,3.44-0.29,4.84-0.18c1.4,0.11,2.84-0.93,3.78-0.16
	l2.6-0.11c5.03-0.25,4.78,1.91,5.93,3.73c0.81,1.27,0.1,3.03,1.08,4.15c1.13,0.57,1.63,1.27,1.52,2.08
	c1.12-0.56,2.42-0.65,3.61-0.25c0.54-3.79,7.79-4.99,10.16,1.89c3.31,0.43,4.68,1.53,4.78,4.11c6.56,7.31-1.89,7.57-2.88,11.27
	c-4.25,5.36-4.27-2.21-5.42,0.19c4.86,7.25,2.36,15.73-3.97,24.9c0.24,3.1,0.11,6.22-0.38,9.29l-0.57,2.63
	c1.18,2.11,1.44,6.39,3.55,6.34c1.22-0.68,2.33,0.09,3.3,2.3c0.94,0.28,1.26,1.27,0.95,3c1.31,1.76,2.48,3.62,3.5,5.56l-0.14,1.93
	c1.63,1.19,1.54,3.32-0.3,3.95c-0.28,5-2.94,7.71-7.16,8.83c0.03,2.3-1.82,4.19-4.13,4.22c-0.06,0-0.12,0-0.19,0H28.9
	c-3.5,0-4.97-1.8-4.47-4.31c-5.15-0.12-7.56-2.51-7.23-7.19c-1.94-1.62-2.13-3.25-0.58-4.89c-0.12-1.49,0.13-2.99,0.74-4.36
	c-0.32-0.71-0.01-1.55,0.7-1.87c0.05-0.02,0.11-0.05,0.16-0.06c1.9-1.2,2.44-2.4,1.61-3.61c1.85-1.24,1.83-4.19,3.3-4.54
	c5.15,1.68,2.68-6.56,4.02-9.85c-1.56-2.61-2.01-5.43-1.33-9c-7.94-8.53-8.1-16.93-3.89-23.84c-3.75,6.21-5.71-2.86-9.2-4.75
	c-1.86-1.96-1.37-3.94,1.47-5.93c-0.91-3.64,2.83-3.68,4.25-5.49c0.3-1.03,0.9-1.94,1.71-2.63 M30.15,103.39L30.15,103.39
	c0.42-0.1,0.85,0.16,0.95,0.58c0.1,0.42-0.16,0.85-0.58,0.95c-0.42,0.1-0.85-0.16-0.95-0.58c-0.02-0.07-0.02-0.14-0.02-0.21
	C29.54,103.77,29.8,103.46,30.15,103.39 M29.26,80.76L29.26,80.76c0.35,0.06,0.61,0.38,0.6,0.74c0.01,0.36-0.25,0.67-0.61,0.74
	c-0.42-0.1-0.68-0.53-0.58-0.95c0.07-0.29,0.29-0.51,0.58-0.58 M32.07,103.39L32.07,103.39c0.42-0.1,0.85,0.16,0.95,0.58
	c0.1,0.42-0.16,0.85-0.58,0.95c-0.42,0.1-0.85-0.16-0.95-0.58c-0.02-0.07-0.02-0.14-0.02-0.21
	C31.45,103.76,31.71,103.44,32.07,103.39 M31.18,80.75L31.18,80.75c0.42-0.1,0.85,0.16,0.95,0.58c0.1,0.42-0.16,0.85-0.58,0.95
	c-0.42,0.1-0.85-0.16-0.95-0.58c-0.02-0.07-0.02-0.14-0.02-0.21C30.55,81.12,30.81,80.8,31.18,80.75 M34.18,103.35L34.18,103.35
	c0.42-0.1,0.85,0.17,0.94,0.59c0.1,0.42-0.17,0.85-0.59,0.94c-0.42,0.1-0.85-0.17-0.94-0.59c-0.02-0.07-0.02-0.14-0.02-0.21
	C33.55,103.71,33.81,103.39,34.18,103.35 M33.28,80.71L33.28,80.71c0.42-0.1,0.85,0.17,0.94,0.59c0.1,0.42-0.17,0.85-0.59,0.94
	c-0.42,0.1-0.85-0.17-0.94-0.59c-0.02-0.07-0.02-0.14-0.02-0.21C32.65,81.08,32.91,80.76,33.28,80.71 M36.22,103.3L36.22,103.3
	c0.37,0.06,0.64,0.4,0.61,0.77c0.01,0.36-0.25,0.67-0.61,0.74c-0.42-0.11-0.68-0.55-0.57-0.97c0.07-0.28,0.29-0.5,0.57-0.57
	 M35.33,80.64L35.33,80.64c0.42-0.1,0.85,0.17,0.94,0.59c0.1,0.42-0.17,0.85-0.59,0.94c-0.42,0.1-0.85-0.17-0.94-0.59
	c-0.02-0.07-0.02-0.14-0.02-0.21C34.72,81.02,34.98,80.7,35.33,80.64 M38.09,103.39L38.09,103.39c0.42-0.1,0.85,0.17,0.94,0.59
	c0.1,0.42-0.17,0.85-0.59,0.94c-0.42,0.1-0.85-0.17-0.94-0.59c-0.01-0.06-0.02-0.11-0.02-0.17
	C37.46,103.79,37.72,103.45,38.09,103.39 M37.2,80.76L37.2,80.76c0.42-0.1,0.85,0.17,0.94,0.59c0.1,0.42-0.17,0.85-0.59,0.94
	c-0.42,0.1-0.85-0.17-0.94-0.59c-0.02-0.07-0.02-0.14-0.02-0.21C36.58,81.13,36.84,80.82,37.2,80.76 M40.07,103.39L40.07,103.39
	c0.36,0.05,0.63,0.37,0.6,0.74c-0.07,0.34-0.39,0.55-0.72,0.49c-0.34-0.07-0.55-0.39-0.49-0.72
	C39.52,103.6,39.78,103.39,40.07,103.39 M39.18,80.76L39.18,80.76c0.42-0.1,0.85,0.16,0.95,0.58c0.1,0.42-0.16,0.85-0.58,0.95
	c-0.42,0.1-0.85-0.16-0.95-0.58c-0.02-0.07-0.02-0.14-0.02-0.21C38.55,81.13,38.81,80.81,39.18,80.76 M41.95,103.39L41.95,103.39
	c0.42,0.1,0.68,0.53,0.58,0.95c-0.07,0.29-0.29,0.51-0.58,0.58c-0.42-0.1-0.68-0.53-0.58-0.95
	C41.44,103.68,41.66,103.46,41.95,103.39 M40.84,80.44L40.84,80.44c0.43-0.11,0.86,0.15,0.96,0.58c0.11,0.43-0.15,0.86-0.58,0.96
	c-0.43,0.11-0.86-0.15-0.96-0.58c-0.02-0.07-0.03-0.15-0.02-0.23C40.23,80.81,40.48,80.5,40.84,80.44 M43.94,103.4L43.94,103.4
	c0.35,0.06,0.61,0.38,0.6,0.74c0.08,0.34-0.12,0.67-0.46,0.76c-0.34,0.08-0.67-0.12-0.76-0.46c-0.02-0.1-0.02-0.2,0-0.3
	C43.32,103.77,43.58,103.46,43.94,103.4 M53.73,81.4L53.73,81.4c0.37,0.07,0.63,0.4,0.6,0.77c0.08,0.34-0.12,0.67-0.46,0.76
	c-0.34,0.08-0.67-0.12-0.76-0.46c-0.02-0.1-0.02-0.2,0-0.3C53.1,81.8,53.36,81.46,53.73,81.4 M46.08,103.48L46.08,103.48
	c0.42,0.09,0.69,0.51,0.6,0.94c-0.07,0.3-0.3,0.53-0.6,0.6c-0.35-0.07-0.6-0.38-0.6-0.74c-0.01-0.36,0.25-0.67,0.6-0.74
	 M55.88,81.55L55.88,81.55c0.42-0.1,0.85,0.17,0.94,0.59c0.1,0.42-0.17,0.85-0.59,0.94c-0.42,0.1-0.85-0.17-0.94-0.59
	c-0.02-0.07-0.02-0.14-0.02-0.21C55.26,81.92,55.52,81.61,55.88,81.55 M48.12,103.46L48.12,103.46c0.42-0.1,0.85,0.17,0.94,0.59
	c0.1,0.42-0.17,0.85-0.59,0.94c-0.42,0.1-0.85-0.17-0.94-0.59c-0.02-0.07-0.02-0.14-0.02-0.21
	C47.49,103.83,47.76,103.51,48.12,103.46 M57.92,81.47L57.92,81.47c0.36,0.05,0.63,0.37,0.6,0.74c0.08,0.34-0.12,0.67-0.46,0.76
	c-0.34,0.08-0.67-0.12-0.76-0.46c-0.02-0.1-0.02-0.2,0-0.3C57.28,81.83,57.55,81.51,57.92,81.47 M50.15,103.39L50.15,103.39
	c0.43-0.11,0.86,0.15,0.96,0.58c0.11,0.43-0.15,0.86-0.58,0.96c-0.43,0.11-0.86-0.15-0.96-0.58c-0.02-0.06-0.02-0.13-0.02-0.19
	C49.52,103.79,49.78,103.46,50.15,103.39 M59.95,81.4L59.95,81.4c0.42-0.09,0.84,0.17,0.93,0.59c0.09,0.42-0.17,0.84-0.59,0.93
	c-0.42,0.09-0.84-0.17-0.93-0.59c-0.01-0.06-0.02-0.13-0.02-0.19C59.32,81.77,59.58,81.45,59.95,81.4 M52.08,103.36L52.08,103.36
	c0.42-0.1,0.85,0.17,0.94,0.59c0.1,0.42-0.17,0.85-0.59,0.94c-0.42,0.1-0.85-0.17-0.94-0.59c-0.02-0.07-0.02-0.14-0.02-0.21
	C51.47,103.73,51.73,103.42,52.08,103.36 M61.88,81.31L61.88,81.31c0.42-0.1,0.85,0.17,0.94,0.59c0.1,0.42-0.17,0.85-0.59,0.94
	c-0.42,0.1-0.85-0.17-0.94-0.59c-0.02-0.07-0.02-0.14-0.02-0.21C61.25,81.68,61.51,81.36,61.88,81.31 M54.11,103.39L54.11,103.39
	c0.42-0.1,0.85,0.16,0.95,0.58c0.1,0.42-0.16,0.85-0.58,0.95c-0.42,0.1-0.85-0.16-0.95-0.58c-0.02-0.07-0.02-0.14-0.02-0.21
	C53.51,103.77,53.76,103.46,54.11,103.39 M63.92,81.39L63.92,81.39c0.42-0.1,0.85,0.17,0.94,0.59c0.1,0.42-0.17,0.85-0.59,0.94
	c-0.42,0.1-0.85-0.17-0.94-0.59c-0.02-0.07-0.02-0.14-0.02-0.21C63.28,81.76,63.55,81.44,63.92,81.39 M56.1,103.39L56.1,103.39
	c0.42-0.1,0.85,0.17,0.94,0.59c0.1,0.42-0.17,0.85-0.59,0.94c-0.42,0.1-0.85-0.17-0.94-0.59c-0.02-0.07-0.02-0.14-0.02-0.21
	C55.49,103.76,55.74,103.45,56.1,103.39 M65.9,81.39L65.9,81.39c0.42-0.1,0.85,0.17,0.94,0.59c0.1,0.42-0.17,0.85-0.59,0.94
	c-0.42,0.1-0.85-0.17-0.94-0.59c-0.02-0.07-0.02-0.14-0.02-0.21C65.28,81.76,65.54,81.45,65.9,81.39 M57.98,103.32L57.98,103.32
	c0.42,0.1,0.68,0.53,0.58,0.95c-0.07,0.29-0.29,0.51-0.58,0.58c-0.36-0.05-0.63-0.37-0.6-0.74c-0.01-0.36,0.25-0.67,0.6-0.74
	 M67.77,81.31L67.77,81.31c0.36,0.06,0.62,0.37,0.61,0.74c0.01,0.36-0.25,0.67-0.61,0.74c-0.36-0.05-0.63-0.37-0.6-0.74
	C67.16,81.69,67.42,81.38,67.77,81.31 M59.86,103.32L59.86,103.32c0.42-0.1,0.85,0.17,0.94,0.59c0.1,0.42-0.17,0.85-0.59,0.94
	c-0.42,0.1-0.85-0.17-0.94-0.59c-0.01-0.06-0.02-0.11-0.02-0.17C59.23,103.72,59.49,103.39,59.86,103.32 M61.9,103.32L61.9,103.32
	c0.35,0.06,0.61,0.38,0.6,0.74c0.02,0.38-0.24,0.71-0.61,0.77c-0.42-0.09-0.69-0.51-0.6-0.94c0.07-0.3,0.3-0.53,0.6-0.6 M38.8,11.45
	L38.8,11.45c3.86-1.76,7.72-2.21,11.58-0.9c0.96,1.16,3.11,0.99,2.87,3.49c1.05,1.69,1.47,3.14,0.55,4.11
	c-1.94,1.08-1.85-0.88-2.78-1.32c6.14-4.93-5.43-7.71-3.5-0.79c0,2.66-3.91,1.57-2.8,0c0.94-6.5-6.95-5.42-6.2-0.24
	c0.13,0.92,3.73,0.17,2.26,1.74c-0.82,0.47-1.32,1.36-1.28,2.31l-0.1,1.47c-0.84,1.89-0.32,2.95,1.56,3.17
	c0.74,1.1,0.23,1.83-1.05,1.13l-1.62-1.68l-0.1-3.5l0.6-2.21c-1.38-0.44-1.9-1.24-1.56-2.38c0.67-1.42,1.19-2.9,1.57-4.42
	 M40.55,12.76L40.55,12.76c2.03-0.96,2.65-0.07,2.63,1.53C42.23,13.08,42.09,12.82,40.55,12.76 M47.91,19.13L47.91,19.13
	c2.11,1.47,2.98,0.53,3.26-1.3C49.87,19.06,49.66,19.31,47.91,19.13 M40.73,21.41L40.73,21.41c1.78,2.16,2.99,1.47,3.86-0.4
	C42.83,21.92,42.53,22.11,40.73,21.41 M46.28,21.11L46.28,21.11c3.16,2.74,5.31,1.84,6.85-0.5C50.01,21.76,49.46,22,46.28,21.11
	 M41.43,13.84L41.43,13.84c0.89,0,1.62,0.51,1.62,1.12s-0.74,1.12-1.63,1.12c-0.89,0-1.62-0.5-1.62-1.12S40.54,13.84,41.43,13.84
	 M50.83,12.77L50.83,12.77c-0.52,0.45-1.69,0.63-1.57,1.35l-0.13,0.69c2.94-2.55,4.07,1.63-0.18,1.47l-0.89-1.29
	c0.19-2.54,1.47-2.58,2.78-2.21 M42.63,17.2L42.63,17.2c0.3-0.07,0.6,0.11,0.67,0.4c0.07,0.3-0.11,0.6-0.4,0.67
	c-0.3,0.07-0.6-0.11-0.67-0.4c-0.01-0.04-0.02-0.09-0.02-0.13C42.18,17.47,42.37,17.23,42.63,17.2 M49.12,17.38L49.12,17.38
	c0.28,0,0.5,0.22,0.51,0.49c0,0,0,0,0,0c-0.01,0.28-0.24,0.49-0.52,0.49c-0.27,0-0.49-0.22-0.49-0.49
	C48.62,17.6,48.84,17.38,49.12,17.38C49.11,17.38,49.11,17.38,49.12,17.38 M41.31,18.33L41.31,18.33c0.17-0.09,0.51,0.18,0.74,0.6
	s0.32,0.85,0.15,0.93c-0.16,0.09-0.5-0.18-0.74-0.6C41.23,18.83,41.15,18.42,41.31,18.33 M40.43,19.59L40.43,19.59
	c0.13-0.13,0.54,0.05,0.89,0.4c0.35,0.35,0.53,0.74,0.39,0.87c-0.14,0.13-0.53-0.06-0.88-0.4C40.47,20.11,40.29,19.72,40.43,19.59
	 M45.91,19.08L45.91,19.08c0.74,0,1.39,0.37,1.39,0.81c0,0.44-1.15,0.09-1.63,0.74s-1.06-0.54-1.06-0.99c0-0.45,0.54-0.54,1.3-0.54
	 M45.81,22.95L45.81,22.95c0.74,0,1.3,0.4,1.3,0.9s-0.59,0.89-1.3,0.89s-1.3-0.4-1.3-0.89C44.51,23.37,45.1,22.95,45.81,22.95
	 M42.13,24.21h1.18c0.93,3.02,5.22,2.94,5.56,0.18c0.52-0.29,1.69-0.74,1.57,0.74c-0.85-1.25-0.79,2.38-1.02,2.86
	c-1.82,0.63-3.43,0.84-4.25-0.44c-3.03,1.05-3.98-0.3-3.05-3.32 M53.53,11.05L53.53,11.05c0.18-1.85,0.83-1.38,1.66-0.45
	c0.37,0.72,0.28,1.58-0.23,2.21l0.31,1.47c1.08,0.42,1.54,1.31,1.38,2.69c-0.83,1.99,1.47,3.89-0.28,6.51l-1.02-0.53
	c-0.29,0.63,1.16,3.31-0.88,1.89c-0.52-0.96-0.68-1.74-0.18-2.61c-0.06-0.9-0.13-1.8-0.18-2.69c1.74-1.34,1.62-3.05-0.35-5.11
	c-0.08-1.13,0.12-2.27-0.24-3.4 M41.67,7.36L41.67,7.36c0.36,0,0.65,0.52,0.65,1.16c0,0.64-0.29,1.16-0.65,1.16
	s-0.65-0.52-0.65-1.16C41.02,7.88,41.32,7.36,41.67,7.36 M43.48,7.05L43.48,7.05c0.35,0,0.64,0.52,0.64,1.16s-0.29,1.16-0.65,1.16
	s-0.65-0.52-0.65-1.16S43.12,7.05,43.48,7.05 M45.47,7.18L45.47,7.18c0.35,0,0.65,0.53,0.64,1.17s-0.29,1.16-0.65,1.16
	s-0.65-0.52-0.65-1.16S45.11,7.18,45.47,7.18 M47.26,7.06L47.26,7.06c0.36,0,0.65,0.52,0.65,1.16c0,0.64-0.3,1.16-0.65,1.16
	s-0.65-0.52-0.65-1.16C46.62,7.58,46.91,7.06,47.26,7.06 M49.32,6.82L49.32,6.82c0.31,0,0.49,0.61,0.39,1.35
	c-0.1,0.74-0.41,1.35-0.74,1.35c-0.32,0-0.49-0.6-0.4-1.35C48.67,7.43,48.99,6.82,49.32,6.82 M52.94,21.6L52.94,21.6l0.46,1.07
	c-0.18,1.58-1.47,1.54-1.77,2.42c-0.96,1.37-0.99,0.42-0.65-0.81C51.89,23.99,52.54,23.1,52.94,21.6 M38.43,8.22L38.43,8.22
	c1.05-1.1,1.91,0.21,2.21,1.26L38.5,9.19c-1.17-0.07-2.06,0-1.56,1.39c3.45,0.38,0.33,1.22-0.19,1.97l-0.27,2.77
	c0.27,2.51-0.93,4.93-2.49-0.53c0.8-2.45,1.79-1.47,1.57-0.1c1.47-0.21,0.33-2.55,0.5-3.83C35,8.92,35.79,8.05,38.43,8.25
	 M50.28,8.52L50.28,8.52c2.51-2.35,5-1.61,3.06,0.09l-0.93,1.62c0.64,0.92,0.64,1.57,0.27,1.16c-0.72-0.5-1.47-0.95-2.24-1.34
	c2.33-1.32,2.82-3.08-0.04-1.18L50.28,8.52z M21.84,15.15L21.84,15.15c3.96-2.87,5.96-2.13,5.46,3.14l-0.78,2.41
	c1.06,1.35,0.91,2.21-0.74,2.16c1.41,1.13,1.47,2.15,0.18,3.04l-2.24-1.69c0.74-0.89,2.25-1.24-0.51-2.14
	c4.5-1.38,0.52-7.49,0.1-5.44c1.69,1.93,1.66,3.38-0.1,4.36c-0.24,0.13,1.41-3.21-0.82-3c-2.77,0.27-2.6-2.37-0.57-2.84
	 M15.04,22.39L15.04,22.39c-0.4-1.99,0.44-3.15,2.51-3.49c0.42-0.83,1.44-1.16,2.27-0.74c0.03,0.02,0.06,0.03,0.09,0.05
	c1.14,0.88,3.68,1.59,0.42,2.39l-0.74,0.74c2.69,0.44,3.66,1.6,2.9,3.48c0.17,4.34-0.26,6.54-1.32,6.62
	c-1.34,1.67-2.31,2.02-2.94,1.06l2.87-2.75L20.84,28c-0.9-0.94-2.08-2.43-0.2-2.3c0.53-0.79,1.52-2.73-0.35-1
	c-0.55-0.32-0.92-1.69-1.94-0.66c-0.79,0.3-1.39-0.11-1.52-1.07c1.66-1.01,1.91-2.5,0.46-3.03c-1.83,0.17-2.3,1.05-1.41,2.64
	c0.4,0.89-1.05,1.96-1.57,2.94c-1.02,1.21-2.05,0.74-1.41-1.21L15.04,22.39z M15.68,25.63L15.68,25.63
	c0.62,0.48,2.63-1.47,1.57,0.09c-0.49,1.4-1.47,1.73-2.94,0.99L15.68,25.63z M17.44,30.04L17.44,30.04c0.52,0,0.93,0.24,0.93,0.54
	s-0.41,0.54-0.93,0.54c-0.52,0-0.92-0.24-0.92-0.54C16.52,30.28,16.94,30.04,17.44,30.04 M63.7,15.82L63.7,15.82
	c1.02-2.66,5.44-2.84,4.9,0.26c2.72-0.08,2.65,1.8,0.09,1.88c-1.47,0.17-1.47,1.6-2.16,2.4c-2.33-0.05-1.99,1.51-2.28,2.53
	c-1.29,0.47-2.11-1.83-0.24-3.14c1.07-0.74,0.58-2.3-0.66-0.63C63.14,18.01,63.26,16.86,63.7,15.82 M69.44,19.13L69.44,19.13
	c1.36-0.75,2.47-0.9,3.33-0.45l1.37,0.54c3.27,1.07-1.32,1.52-0.74,3.48c-1.57-0.09-1.85-1.88-3.05-1.07
	C69.12,21.34,68.14,20.68,69.44,19.13 M69.05,23.54L69.05,23.54c0.4-1.22,1.55-1.38,3.42-0.45c0.63,0.95,2.63,1.01,1.87,2.86
	l2.59,0.54c0.74,0.6,0.39,1.21-0.38,1.01l-2.05-0.38c-1.26-3.68-4.6-0.29-5.55-1.7L69.05,23.54z M75.35,21.56L75.35,21.56
	c-0.31-0.18-0.85,0.15-1.2,0.74c-0.35,0.59-0.4,1.18-0.09,1.36c0.31,0.18,0.85-0.15,1.2-0.74C75.61,22.34,75.66,21.74,75.35,21.56
	 M75.16,24.26L75.16,24.26c0.99,0.12,1.05-2.72,2.13-0.74c-0.07,0.74,3.02,3.08-0.19,2.33L75.16,24.26z M75.43,28.02L75.43,28.02
	c0.37-0.07,0.73,0.18,0.8,0.55c0.07,0.37-0.18,0.73-0.55,0.8c-0.37,0.07-0.73-0.18-0.8-0.55c-0.01-0.04-0.01-0.08-0.01-0.12
	C74.85,28.35,75.1,28.06,75.43,28.02 M58.13,18.08L58.13,18.08c0.92-0.99,2.17-1.6,3.52-1.71c2.21,0.81-0.8,1.52-1.3,2.15
	c-0.56-1.13-1.39,0.06-1.3,0.9C58.32,19.42,57.58,19.16,58.13,18.08 M59.06,21.22L59.06,21.22c1.34-0.15,2.57-0.8,3.46-1.82
	c0.22-0.82-0.17-1.3-0.43-0.98c-0.67,0.58-1.52,0.91-2.41,0.96c0.05,0.33-0.74,0.99-1.22,0.74c-0.44,0.61-0.6,0.94,0.6,1.14
	 M66.18,21.61L66.18,21.61c1.47-1.44,1.85-1.19,1.11,0.74c-0.68,0.42-1.17,0.74-0.93,1.53c-0.4,1.13-0.43,1.47-1.21,0.18
	c-0.27-0.95,0.16-1.95,1.02-2.42 M59.6,21.81L59.6,21.81c0.96,0.11,1.92-0.16,2.69-0.74c0.11,0.75-0.06,1.51-0.47,2.15
	c-0.84-0.65-1.69,0.48-2.54,0.74l-0.7-0.09C59.12,23.29,59.48,22.57,59.6,21.81 M59.5,24.98L59.5,24.98c2.02-2.63,5.71-0.6,2.32,0.8
	l-1.39,0.18c-0.37,0.99-0.93,1.47-1.39,0.27L59.5,24.98z M38.78,44.28L38.78,44.28c0.31-3.25,4.08-3.33,2.15-0.44l-0.98,0.83
	c0.17,1.04-0.04,1.69-0.94,0.91L38.78,44.28z M39.46,47.65L39.46,47.65c0.74-2.5,3.72-1.99,1.74,0l-0.9,0.51
	c0,0.83-0.29,1.32-0.88,0.58L39.46,47.65z M59.94,28.41L59.94,28.41c1.63-2.44,4.64-1.33,1.88,0.32l-1.13,0.35
	c-0.3,0.85-0.74,1.3-1.13,0.43L59.94,28.41z M60.89,31.06L60.89,31.06c1.6-2.7,4.56-2.21,1.85-0.05l-1.11,0.56
	c-0.29,0.91-0.74,1.42-1.1,0.64L60.89,31.06z M35.98,38.42L35.98,38.42c1.27-2.14,3.62-1.74,1.47,0l-0.88,0.44
	c-0.24,0.74-0.59,1.13-0.88,0.5L35.98,38.42z M67.25,48.37L67.25,48.37c0.4-2.82,2.83-3.33,1.41-0.64l-0.68,0.83
	c0.05,0.86-0.13,1.47-0.66,0.9L67.25,48.37z M64.9,51.93L64.9,51.93c0.36-2.5,2.52-2.94,1.25-0.57l-0.6,0.74
	c0.04,0.74-0.12,1.29-0.59,0.79L64.9,51.93z M63.22,50.46L63.22,50.46c0.32-2.27,2.29-2.69,1.13-0.52l-0.55,0.68
	c0.04,0.69-0.1,1.17-0.53,0.74L63.22,50.46z M61.75,48.32L61.75,48.32c0.32-2.27,2.29-2.69,1.13-0.52l-0.54,0.68
	c0.04,0.69-0.11,1.17-0.54,0.74L61.75,48.32z M59.62,51.4L59.62,51.4c0.32-2.27,2.29-2.69,1.13-0.52l-0.55,0.67
	c0.04,0.7-0.1,1.17-0.53,0.74L59.62,51.4z M61.01,54.11L61.01,54.11c0.28-2.02,2.03-2.4,1.01-0.46l-0.49,0.6
	c0,0.62-0.1,1.04-0.47,0.64L61.01,54.11z M62.96,55.63L62.96,55.63c0.38-1.77,2.63-2.1,1.31-0.4l-0.63,0.52
	c0.04,0.54-0.13,0.92-0.61,0.57L62.96,55.63z M40.12,50.4L40.12,50.4c0.63-2.21,2.63-2.37,1.19-0.36l-0.63,0.6
	c-0.06,0.69-0.27,1.15-0.63,0.65L40.12,50.4z M40.56,52.71L40.56,52.71c1.02-2.31,3.22-2.21,1.35-0.22l-0.78,0.55
	c-0.18,0.74-0.46,1.21-0.79,0.62L40.56,52.71z M41.55,60.97L41.55,60.97c-1.47-5.57,2.16-7.42,1.77-1.93l-0.11,3.35
	c0.63,1.8,0.29,5.15-1.17,4.25L41.55,60.97z M43.19,54.46L43.19,54.46c0.74-2.1,2.66-2.15,1.17-0.29l-0.65,0.54
	c-0.1,0.66-0.32,1.09-0.64,0.59L43.19,54.46z M45.39,56.1L45.39,56.1c-0.22-1.63,1.52-2.21,0.94-0.54l-0.36,0.56
	c0.2,0.47,0.18,0.82-0.32,0.58L45.39,56.1z M43.92,50.42L43.92,50.42c1.47-2.35,3.8-1.91,1.47-0.06l-0.93,0.49
	c-0.29,0.78-0.68,1.24-0.93,0.55L43.92,50.42z M65.73,46.5L65.73,46.5c0.33-2.34,2.35-2.77,1.16-0.53l-0.57,0.69
	c0.04,0.74-0.11,1.21-0.54,0.74L65.73,46.5z M63.92,44.61L63.92,44.61c0.4-2.82,2.84-3.34,1.41-0.64l-0.68,0.83
	c0.05,0.87-0.13,1.47-0.66,0.9L63.92,44.61z M62.17,42.83L62.17,42.83c0.43-2.94,2.94-3.48,1.47-0.66l-0.74,0.88
	c0.04,0.9-0.14,1.52-0.69,0.93L62.17,42.83z M41.94,36.94L41.94,36.94c1.57-3.68,5.26-3.62,2.27-0.43l-1.28,0.92
	c-0.23,1.17-0.69,1.91-1.27,1.01L41.94,36.94z M39.63,36.09L39.63,36.09c1.29-3.04,4.35-3,1.86-0.35l-1.05,0.74
	c-0.19,0.98-0.57,1.58-1.05,0.84L39.63,36.09z M39.04,40.25L39.04,40.25c0.77-2.4,3.11-2.57,1.4-0.39l-0.74,0.65
	c-0.07,0.74-0.32,1.24-0.74,0.74L39.04,40.25z M50.08,37L50.08,37c-1.55-3.68-5.25-3.63-2.25-0.43l1.27,0.92
	c0.23,1.17,0.69,1.91,1.27,1L50.08,37z M53.22,36.07L53.22,36.07c-2.04-2.79-5.15-2.05-1.98,0.07l1.25,0.53
	c0.42,0.93,0.96,1.47,1.26,0.6L53.22,36.07z M56.96,35.27L56.96,35.27c-1.33-1.74-3.29-1.24-1.26,0.07l0.86,0.35
	c0.28,0.59,0.63,0.92,0.81,0.37L56.96,35.27z M53.76,39.54L53.76,39.54c-1.47-2.41-4.05-2.02-1.62-0.08l0.99,0.52
	c0.28,0.8,0.68,1.27,0.99,0.58L53.76,39.54z M53.43,42.19L53.43,42.19c-1.13-2.27-3.47-2.1-1.47-0.19l0.84,0.53
	c0.19,0.74,0.52,1.19,0.84,0.6L53.43,42.19z M53.61,45.48L53.61,45.48c-1.11-2.82-3.92-2.86-1.71-0.38l0.95,0.74
	c0.15,0.9,0.49,1.47,0.94,0.78L53.61,45.48z M53.36,48.24L53.36,48.24c-1.1-2.82-3.92-2.85-1.71-0.37l0.96,0.74
	c0.15,0.9,0.49,1.47,0.93,0.78L53.36,48.24z M52.75,51.57L52.75,51.57c-0.38-3-3.09-3.68-1.56-0.74l0.74,0.92
	c-0.08,0.91,0.11,1.54,0.74,0.99L52.75,51.57z M42.15,40.65L42.15,40.65c1.55-3.47,5.15-3.61,2.21-0.52l-1.25,0.91
	c-0.23,1.1-0.69,1.8-1.24,0.99L42.15,40.65z M49.62,39.71L49.62,39.71c-1.91-3.39-5.59-3.22-2.3-0.32l1.36,0.82
	c0.35,1.09,0.88,1.77,1.36,0.9L49.62,39.71z M42.46,44.42L42.46,44.42c1.23-3.55,4.59-4.23,2.03-0.82l-1.12,1.05
	c-0.15,1.09-0.53,1.83-1.1,1.14L42.46,44.42z M49.47,45.65L49.47,45.65c-2.62-3.87-6.37-4.07-2.35-0.35l1.44,0.6
	c0.54,1.18,1.24,1.99,1.6,1.24L49.47,45.65z M48.24,47.39L48.24,47.39c-1-1.47-2.75-0.6-1.22,0.82l0.54,0.24
	c0.21,0.44,0.47,0.2,0.61-0.09L48.24,47.39z M48.65,50.4L48.65,50.4c-1-1.47-2.75-0.6-1.22,0.82l0.54,0.23
	c0.21,0.44,0.47,0.21,0.61-0.08L48.65,50.4z M48.15,53.34L48.15,53.34c-1-1.47-2.75-0.6-1.22,0.82l0.54,0.24
	c0.21,0.45,0.47,0.2,0.61-0.08L48.15,53.34z M50.23,52.91L50.23,52.91c-0.84-1.24-2.31-0.5-1.03,0.68l0.46,0.2
	c0.18,0.38,0.4,0.17,0.52-0.07L50.23,52.91z M49.57,43.18L49.57,43.18c-1.86-3.27-5.3-3.36-2.15-0.45l1.29,0.85
	c0.35,1.03,0.86,1.69,1.29,0.92L49.57,43.18z M60.75,40.81L60.75,40.81c0.33-2.3,2.31-2.72,1.15-0.52l-0.56,0.68
	c0.04,0.69-0.11,1.18-0.54,0.74L60.75,40.81z M58.13,33.8L58.13,33.8c0.33-2.3,2.31-2.72,1.14-0.52l-0.55,0.68
	c0.04,0.7-0.1,1.18-0.54,0.74L58.13,33.8z M60.15,37.94L60.15,37.94c0.26-1.83,1.84-2.21,0.91-0.42l-0.44,0.54
	c0,0.57-0.09,0.94-0.43,0.58L60.15,37.94z M59.31,40.55L59.31,40.55c0.07-1.84,1.62-2.33,0.87-0.49l-0.38,0.58
	c0.08,0.55,0,0.94-0.37,0.61L59.31,40.55z M58.86,36.29L58.86,36.29c0.35-2.48,2.5-2.94,1.24-0.56l-0.6,0.74
	c0.04,0.74-0.12,1.28-0.58,0.79L58.86,36.29z M65.92,33.35L65.92,33.35c0.47-2.48,2.86-2.87,1.4-0.53l-0.68,0.74
	c0,0.74-0.17,1.28-0.67,0.74L65.92,33.35z M65.01,29.56L65.01,29.56c1.41-2.94,4.55-2.7,1.92-0.22l-1.1,0.68
	c-0.23,0.96-0.64,1.55-1.1,0.74L65.01,29.56z M61.71,33.48L61.71,33.48c1.65-2.31,4.69-1.88,1.9-0.04l-1.14,0.49
	c-0.31,0.74-0.74,1.22-1.14,0.54L61.71,33.48z M62.34,35.69L62.34,35.69c1.64-2.55,4.75-1.99,1.97,0.25l-0.99,0.86
	c0.22,1.02,1.1,1.73-0.85,0.5L62.34,35.69z M31.61,18.16L31.61,18.16c-1.59-2.69-5.74-0.61-2.52,0.83l1.39,0.18
	c0.2,1.02,0.69,1.47,1.38,0.28L31.61,18.16z M33.88,18.52L33.88,18.52c0.38,0,0.29-1.88,1.02-0.36c0.33,0.79,0.86,0.68,1.28,1.02
	c1.43-0.09,1.37,0.76-0.18,2.57c-0.52-0.15-1.52,0.69-1.76-0.26c-0.13-0.99,0.22-2.06-0.37-2.94 M34.18,23.69L34.18,23.69
	c0,0.43,0.11-1.74,1.47-0.93c1.38-1.47,1.01,0.46,1.29,1.01c0.74,0.48,0.96,1.05,0.12,2.29C36.58,26.01,35.42,25.97,34.18,23.69
	 M35.75,27.88L35.75,27.88c-1.13-0.53-2.05-1.88,1.31-0.78c1.38-1.47,1.3,0.38,1.58,0.93c1.63-0.81,1.35,0.4-0.18,2.21
	C37.98,30.24,36.99,28.44,35.75,27.88 M39.79,30.9L39.79,30.9c-0.41-0.74,0.04-2.52,1.24-0.68c0.94-0.32,1.23,0.48,1.52,0.38
	c1.26-0.74,0.52,0.74-0.65,2.33C41,32.49,40.26,31.78,39.79,30.9 M43.36,31.85L43.36,31.85c0.13-0.52,0.6-2.21,1.08-0.82
	c0.74-0.26,0.62,0.67,0.86,0.59c0.51,0.38,0.62,1.09,0.24,1.61c-0.05,0.07-0.12,0.14-0.19,0.2C44.56,33.63,43.16,32.91,43.36,31.85
	 M49.07,32.59L49.07,32.59c0.33-0.61-0.4-3.26-1.37-1.76c-0.74-0.27-0.1,0.74-0.35,0.66c-0.51,0.37-0.63,1.08-0.26,1.59
	c0.06,0.08,0.12,0.15,0.2,0.21c0.3,0,1.35,0.08,1.78-0.74 M51.82,32.18L51.82,32.18c0.33-0.61-0.4-3.25-1.37-1.76
	c-0.74-0.26-0.11,0.74-0.34,0.66c-0.52,0.37-0.63,1.09-0.27,1.6c0.06,0.08,0.12,0.15,0.19,0.21c0.3,0,1.35,0.07,1.78-0.74
	 M29.2,14.98L29.2,14.98c0.53,0,0.96,0.29,0.96,0.65c0,0.36-0.43,0.65-0.96,0.65s-0.96-0.29-0.96-0.65
	C28.25,15.28,28.67,14.98,29.2,14.98 M32.74,17.93L32.74,17.93c0.3,0.07,0.48,0.37,0.41,0.66c-0.07,0.3-0.37,0.48-0.66,0.41
	c-0.25-0.06-0.43-0.28-0.43-0.54C32.12,18.14,32.41,17.9,32.74,17.93 M32.27,15.77L32.27,15.77c0.3,0.07,0.48,0.37,0.41,0.66
	c-0.07,0.3-0.37,0.48-0.66,0.41c-0.25-0.06-0.43-0.28-0.43-0.54C31.64,15.98,31.94,15.74,32.27,15.77 M28.1,20.06L28.1,20.06
	c0.48-0.49,0.96-0.2,1.47,0.16c0.34,0.52,1.3,0,1.21,1.55c-0.05,0.86,1.9,0.92,0.54,2.38c-0.74-1.16-1.44-1.77-2.79-1.7
	c0.08-0.82-0.05-1.64-0.4-2.39 M27.95,23.21L27.95,23.21c0.46-0.42,0.93-0.18,1.41,0.13c0.34,0.45,1.28,0,1.19,1.32
	c-0.05,0.74,1.86,0.79,0.52,2.03c-0.54-0.99-1.61-1.57-2.73-1.47c0.08-0.7-0.06-1.41-0.39-2.04 M32.73,20.42L32.73,20.42
	c-0.39,0-0.45,0.32-0.46,0.65c0.1,0.35-0.51,0.53,0.22,1.08c0.41,0.31-0.3,1.14,0.86,1.13c-0.31-0.6-0.19-1.33,0.29-1.8
	C33.25,21.22,32.94,20.85,32.73,20.42 M23.44,26.77L23.44,26.77c-0.4-1.16,0.96-0.93,1.68-0.46c0.6,1.18,1.61,2.29,1.83,3.62
	c-1.83,1.06-0.32-0.74-1.42-1.06c-0.45-0.66-1.14-1.14-1.92-1.32L23.44,26.77z M27.45,29.24L27.45,29.24
	c-0.53-1.02,0.74-0.82,1.41-0.4c0.74,1.04,2.02,1.47,2.42,2.66c-0.74,1.84-0.32-0.49-1.27,0c-0.63-0.53-1.39-0.88-2.21-1.02
	L27.45,29.24z M27.6,26.71L27.6,26.71C27.07,25.7,28.34,25.9,29,26.3c0.74,1.05,2.02,1.47,2.41,2.66c-0.74,1.84-0.32-0.49-1.27,0
	c-0.63-0.53-1.39-0.88-2.21-1.02L27.6,26.71z M23.26,29.95L23.26,29.95c-0.4-1.16,0.96-0.93,1.68-0.46
	c0.29,1.26,1.85,2.36,1.58,4.17c-1.83,1.05-1.18,0.35-1.27-1.3c-0.4-0.52-0.88-1.43-1.84-1.64L23.26,29.95z M22.79,33.4L22.79,33.4
	c0.49-2.35,0.79-1.02,0.96-0.38l0.68,1.83c1.95,0.52,0.55,1.47,0.83,2.26c-0.56,0.43-1.47,1.07-0.96-0.54
	C24.6,35.35,22.42,35.69,22.79,33.4 M64.65,28L64.65,28c-2.1,0.07-0.9-2.55-0.55-2.61l2.48-0.1c0.85-3.45,1.35-1.89,1.09-2.25
	c0.05,0.34,0.27,2.6-0.29,2.8c-0.56,0.21,0,0.21-0.82,0.32C64.89,26.39,64.74,27.25,64.65,28 M22.46,37.06L22.46,37.06
	c0.41-1.76,0.68-0.74,0.82-0.29l0.58,1.36c1.68,0.39,0.48,1.12,0.74,1.67c-0.48,0.32-1.26,0.8-0.82-0.39
	c0.25-0.91-1.62-0.65-1.3-2.35 M21.45,39.32L21.45,39.32c0.28-2,0.62-0.88,0.79-0.32l0.67,1.55c1.67,0.44,0.54,1.27,0.82,1.91
	c-0.45,0.37-1.18,0.91-0.83-0.46c0.18-1.02-1.64-0.74-1.47-2.68 M36.88,46.16L36.88,46.16c0.97-2.01,0.92-0.88,0.9-0.33l0.13,1.56
	c1.53,0.43,0.12,1.27,0.16,1.91c-0.57,0.37-1.47,0.91-0.68-0.46C37.93,47.81,36.02,48.1,36.88,46.16 M44.43,46.19L44.43,46.19
	c1.99-1.1,1.27-0.21,0.93,0.23l-0.82,1.35c0.98,1.21-0.68,1.1-1.01,1.66c-0.68,0-1.76-0.09-0.28-0.74c1.05-0.54-0.68-1.38,1.17-2.47
	 M58.77,48.97L58.77,48.97c1.4-1.61,1.01-0.74,0.82-0.26l-0.37,1.26c1.1,0.35-0.3,1.02-0.45,1.54c-0.58,0.29-1.47,0.74-0.41-0.37
	C59.1,50.31,57.48,50.54,58.77,48.97 M60.58,43.96L60.58,43.96c1.6-1.85,1.16-0.8,0.95-0.3l-0.43,1.47
	c1.26,0.41-0.35,1.18-0.52,1.77c-0.66,0.34-1.71,0.85-0.47-0.43c0.86-0.95-1.02-0.69,0.46-2.49 M20.7,42.21L20.7,42.21
	c0.22-1.58,0.49-0.69,0.62-0.26l0.53,1.22c1.32,0.35,0.43,1,0.65,1.47c-0.35,0.29-0.93,0.74-0.65-0.36c0.15-0.8-1.3-0.58-1.14-2.1
	 M20.64,44.99L20.64,44.99c0.17-1.21,0.37-0.53,0.47-0.2l0.4,0.93c1.01,0.26,0.32,0.74,0.49,1.14c-0.27,0.23-0.74,0.55-0.5-0.27
	C21.62,45.98,20.52,46.16,20.64,44.99 M23.07,49.2L23.07,49.2c0.21-1.26,0.45-0.54,0.57-0.21l0.49,0.97c1.21,0.28,0.4,0.8,0.6,1.2
	c-0.32,0.23-0.85,0.57-0.61-0.29C24.26,50.24,22.93,50.42,23.07,49.2 M23.81,46.9L23.81,46.9c0.28-1.51,0.62-0.65,0.78-0.25
	l0.67,1.18c1.66,0.33,0.54,0.95,0.82,1.44c-0.45,0.28-1.18,0.69-0.83-0.35c0.18-0.74-1.63-0.55-1.47-2.02 M27.46,48.93L27.46,48.93
	c0.26-1.39,0.57-0.61,0.74-0.23l0.61,1.07c1.54,0.31,0.51,0.88,0.74,1.32c-0.41,0.26-1.07,0.63-0.74-0.32
	c0.17-0.74-1.47-0.52-1.32-1.85 M26.53,51.36L26.53,51.36c0.24-1.27,0.52-0.55,0.65-0.21l0.56,0.98c1.41,0.28,0.46,0.81,0.69,1.21
	c-0.38,0.24-0.99,0.57-0.74-0.29c0.15-0.65-1.36-0.47-1.21-1.69 M24.41,43.87L24.41,43.87c0.35-1.7,0.78-0.74,0.99-0.28l0.84,1.32
	c2.1,0.38,0.69,1.08,1.04,1.62c-0.57,0.32-1.47,0.77-1.05-0.38C26.46,45.27,24.17,45.51,24.41,43.87 M25.08,41.62L25.08,41.62
	c0.32-1.38,0.74-0.6,0.9-0.23l0.74,1.08c1.9,0.3,0.63,0.88,0.93,1.31c-0.51,0.26-1.33,0.63-0.95-0.31c0.21-0.74-1.86-0.52-1.64-1.85
	 M25.99,38.39L25.99,38.39c0.32-1.75,0.69-0.74,0.88-0.29l0.74,1.36c1.88,0.38,0.62,1.1,0.93,1.66c-0.51,0.32-1.32,0.79-0.94-0.4
	c0.21-0.89-1.84-0.64-1.62-2.33 M26.44,35.09L26.44,35.09c0.31-1.75,0.69-0.74,0.88-0.29l0.74,1.36c1.88,0.38,0.62,1.11,0.92,1.66
	c-0.5,0.32-1.32,0.79-0.93-0.4c0.21-0.9-1.83-0.65-1.62-2.34 M26.89,31.8L26.89,31.8c0.31-1.75,1.33-0.38,1.52,0.1l0.74,0.82
	c1.88,0.39,0.38,1.57,0.68,2.13c-0.5,0.32-1.71,0.49-1.33-0.74c0.21-0.89-1.84-0.65-1.62-2.33 M64.16,37L64.16,37
	c1.41-1.03,2.69-1.28,1.47,0.54c-0.92,2.05-0.24,2.56,1.01,0.88c1.07-0.52,1.56-0.69,1.14,1.1C65.2,41.98,63.77,40.03,64.16,37
	 M52.53,29.39L52.53,29.39c-0.31-1.63,0.5-3.44,1.03-1.65c0.99,0.46,1.02,0,0.49-0.7c-0.21-1.13-0.1-1.64,1.56-0.74
	c0.27,1.6-0.85,2.34-1.47,3.17c-0.89,1.17-1.13,1.27-1.57-0.07 M67.6,40.78L67.6,40.78c1.05-0.74,2.02-0.96,1.11,0.41
	c-0.69,1.53-0.18,1.91,0.74,0.65c0.79-0.38,1.17-0.52,0.85,0.83c-1.94,1.85-3.01,0.38-2.72-1.89 M29.73,42.63L29.73,42.63
	c-1.03-0.1-1.74,0.21-0.56,0.8c1.12,0.82,0.95,1.33-0.21,0.82c-0.69,0.09-1,0.15-0.21,1.01C30.81,45.74,30.9,44.17,29.73,42.63
	 M31.32,46L31.32,46c-0.64-0.68-1.32-0.92-0.89,0.21c0.23,1.24-0.22,1.47-0.68,0.43c-0.52-0.36-0.74-0.5-0.79,0.56
	C30.06,48.78,31.12,47.76,31.32,46 M68.69,27.35L68.69,27.35c2.21-0.96,2.69-0.59,2.16,1.1c-0.83,0.43-1.67,0.85-0.79,2.27
	l1.92,0.49c0.94,1.91,0.56,2.53-0.93,2.09c0.57-0.99-1.57-1.98-2.36-2.94V27.35z M71.3,29.22L71.3,29.22
	c0.87,0.45,2.98-0.2,2.6,1.35l0.13,1.28c-0.54-0.81-1.42-1.33-2.38-1.43C70.17,30.03,70.95,29.74,71.3,29.22 M68.35,35.49
	L68.35,35.49c0.3,0,0.56,0.35,0.56,0.74c0,0.39-0.26,0.74-0.57,0.74s-0.57-0.35-0.57-0.74C67.78,35.83,68.04,35.49,68.35,35.49
	 M46.64,80.53L46.64,80.53c5.58,0.11,10.02,4.72,9.92,10.3c-0.11,5.58-4.72,10.02-10.3,9.92c-5.51-0.1-9.92-4.6-9.92-10.11
	c0.04-5.63,4.64-10.16,10.27-10.11C46.62,80.53,46.63,80.53,46.64,80.53 M46.64,81.87L46.64,81.87c4.84,0.09,8.7,4.08,8.62,8.93
	c-0.09,4.84-4.08,8.7-8.93,8.62c-4.78-0.08-8.62-3.99-8.62-8.77c0.03-4.88,4.01-8.8,8.89-8.77C46.61,81.87,46.63,81.87,46.64,81.87
	 M46.64,88.44L46.64,88.44c1.22,0.02,2.19,1.03,2.17,2.24c-0.02,1.22-1.03,2.19-2.24,2.17c-1.2-0.02-2.17-1-2.17-2.21
	c0-1.22,0.99-2.21,2.21-2.21C46.61,88.44,46.63,88.44,46.64,88.44 M46.56,83.29L46.56,83.29c-0.13-0.96,1.73-0.92,1.59,0l-0.63,4.24
	H47.1L46.56,83.29z M44.81,83.51L44.81,83.51c-0.31-0.91,1.52-1.21,1.56-0.29l0.21,4.28l-0.4,0.08L44.81,83.51z M42.82,84.18
	L42.82,84.18c-0.59-0.77,1.05-1.62,1.38-0.74l1.59,4l-0.36,0.19L42.82,84.18z M41.3,85.39L41.3,85.39
	c-0.74-0.61,0.62-1.82,1.16-1.05L45,87.85l-0.3,0.27L41.3,85.39z M39.87,86.65L39.87,86.65c-0.89-0.42,0.15-1.9,0.87-1.29l3.33,2.81
	l-0.23,0.34L39.87,86.65z M38.9,88.39L38.9,88.39c-0.97-0.2-0.33-1.88,0.52-1.47l3.94,1.95l-0.14,0.38L38.9,88.39z M39.11,92.31
	L39.11,92.31c-0.96,0.24-1.16-1.54-0.2-1.52l4.42,0.06l0.04,0.4L39.11,92.31z M39.84,94.27L39.84,94.27
	c-0.85,0.49-1.56-1.16-0.64-1.41l4.28-1.16l0.16,0.37L39.84,94.27z M40.96,95.87L40.96,95.87c-0.7,0.68-1.81-0.74-0.98-1.21
	l3.86-2.13l0.25,0.32L40.96,95.87z M42.71,97.3L42.71,97.3c-0.47,0.85-1.96-0.21-1.3-0.89l3.04-3.12l0.34,0.23L42.71,97.3z
	 M44.72,98.1L44.72,98.1c-0.19,0.94-1.94,0.35-1.51-0.48l1.97-3.84l0.39,0.13L44.72,98.1z M46.75,98.28L46.75,98.28
	c0.1,0.96-1.74,0.88-1.59,0l0.74-4.23h0.41L46.75,98.28z M48.6,98.06L48.6,98.06c0.26,0.93-1.57,1.14-1.57,0.21v-4.28l0.41-0.06
	L48.6,98.06z M50.44,97.25L50.44,97.25c0.4,0.88-1.37,1.38-1.52,0.46l-0.7-4.24l0.39-0.12L50.44,97.25z M52.43,96.24L52.43,96.24
	c0.63,0.74-0.95,1.67-1.34,0.82l-1.81-3.91l0.35-0.21L52.43,96.24z M53.65,94.71L53.65,94.71c0.81,0.56-0.47,1.85-1.07,1.13
	l-2.8-3.32l0.27-0.29L53.65,94.71z M54.52,92.9L54.52,92.9c0.93,0.34,0,1.91-0.74,1.36l-3.59-2.5l0.19-0.36L54.52,92.9z M54.8,91.01
	L54.8,91.01c0.99,0.09,0.55,1.83-0.35,1.47l-4.14-1.52l0.1-0.39L54.8,91.01z M38.81,90.56L38.81,90.56
	c-0.99,0.04-0.79-1.74,0.14-1.53l4.31,0.99v0.39L38.81,90.56z M48.62,83.45L48.62,83.45c0.13-0.95,1.91-0.46,1.54,0.39l-1.7,3.95
	l-0.4-0.1L48.62,83.45z M50.55,84.15L50.55,84.15c0.37-0.89,1.97,0,1.39,0.74l-2.68,3.41l-0.36-0.19L50.55,84.15z M52.25,85.62
	L52.25,85.62c0.68-0.74,1.83,0.7,1.02,1.18l-3.78,2.21l-0.28-0.34L52.25,85.62z M54.45,89.3L54.45,89.3
	c0.98-0.16,1.02,1.63,0.07,1.54l-4.42-0.43v-0.4L54.45,89.3z M53.89,87.38L53.89,87.38c0.9-0.41,1.47,1.3,0.5,1.47l-4.36,0.74
	l-0.13-0.38L53.89,87.38z M66.18,100.2L66.18,100.2c0.39-0.1,0.79,0.14,0.89,0.53c0.1,0.39-0.14,0.79-0.53,0.89
	c-0.12,0.03-0.24,0.03-0.36,0c-0.41,0-0.74-0.33-0.74-0.74c0-0.41,0.33-0.74,0.74-0.74 M63.97,100.32L63.97,100.32
	c0.41,0,0.74,0.33,0.74,0.74c0,0.41-0.33,0.74-0.74,0.74s-0.74-0.33-0.74-0.74C63.23,100.65,63.56,100.32,63.97,100.32
	 M61.99,100.48L61.99,100.48c0.41,0,0.74,0.33,0.74,0.74c0,0.41-0.33,0.74-0.74,0.74s-0.74-0.33-0.74-0.74
	C61.25,100.81,61.58,100.48,61.99,100.48 M60.01,100.63L60.01,100.63c0.41,0,0.74,0.33,0.74,0.74c0,0.41-0.33,0.74-0.74,0.74
	c-0.41,0-0.74-0.33-0.74-0.74C59.27,100.96,59.6,100.63,60.01,100.63 M58.14,100.68L58.14,100.68c0.41,0,0.74,0.33,0.74,0.74
	c0,0.41-0.33,0.74-0.74,0.74c-0.41,0-0.74-0.33-0.74-0.74C57.4,101.01,57.73,100.68,58.14,100.68 M56.39,100.84L56.39,100.84
	c0.41,0,0.74,0.33,0.74,0.74c0,0.41-0.33,0.74-0.74,0.74s-0.74-0.33-0.74-0.74C55.65,101.17,55.98,100.84,56.39,100.84
	 M54.64,100.89L54.64,100.89c0.41,0,0.74,0.33,0.74,0.74c0,0.41-0.33,0.74-0.74,0.74c-0.41,0-0.74-0.33-0.74-0.74
	C53.9,101.22,54.23,100.89,54.64,100.89 M52.2,100.82L52.2,100.82c0.41,0,0.74,0.33,0.74,0.74c0,0.41-0.33,0.74-0.74,0.74
	c-0.41,0-0.74-0.33-0.74-0.74C51.47,101.15,51.79,100.82,52.2,100.82 M49.54,101.09L49.54,101.09c0.41,0,0.74,0.33,0.74,0.74
	c0,0.41-0.33,0.74-0.74,0.74c-0.41,0-0.74-0.33-0.74-0.74C48.8,101.42,49.13,101.09,49.54,101.09 M47.4,101.29L47.4,101.29
	c0.41,0,0.74,0.33,0.74,0.74s-0.33,0.74-0.74,0.74c-0.41,0-0.74-0.33-0.74-0.74S46.99,101.29,47.4,101.29 M45.42,101.01
	L45.42,101.01c0.41,0,0.74,0.33,0.74,0.74s-0.33,0.74-0.74,0.74s-0.74-0.33-0.74-0.74S45.01,101.01,45.42,101.01 M43.55,100.95
	L43.55,100.95c0.41,0,0.74,0.33,0.74,0.74c0,0.41-0.33,0.74-0.74,0.74s-0.74-0.33-0.74-0.74C42.81,101.28,43.14,100.95,43.55,100.95
	 M41.34,100.89L41.34,100.89c0.41,0,0.74,0.33,0.74,0.74c0,0.41-0.33,0.74-0.74,0.74s-0.74-0.33-0.74-0.74
	C40.6,101.22,40.93,100.89,41.34,100.89 M39.36,100.61L39.36,100.61c0.41,0,0.74,0.33,0.74,0.74c0,0.41-0.33,0.74-0.74,0.74
	c-0.41,0-0.74-0.33-0.74-0.74C38.62,100.94,38.95,100.61,39.36,100.61 M37.38,100.54L37.38,100.54c0.41,0,0.74,0.33,0.74,0.74
	c0,0.41-0.33,0.74-0.74,0.74s-0.74-0.33-0.74-0.74C36.64,100.87,36.97,100.54,37.38,100.54 M35.63,100.48L35.63,100.48
	c0.39-0.1,0.79,0.14,0.89,0.53c0.1,0.39-0.14,0.79-0.53,0.89c-0.12,0.03-0.24,0.03-0.36,0c-0.41,0-0.74-0.33-0.74-0.74
	s0.33-0.74,0.74-0.74 M28.32,103.1L28.32,103.1c0.41,0,0.74,0.33,0.74,0.74c0,0.41-0.33,0.74-0.74,0.74c-0.41,0-0.74-0.33-0.74-0.74
	C27.58,103.43,27.91,103.1,28.32,103.1 M27.44,80.58L27.44,80.58c0.41,0,0.74,0.33,0.74,0.74s-0.33,0.74-0.74,0.74
	c-0.41,0-0.74-0.33-0.74-0.74S27.03,80.58,27.44,80.58 M46.72,89.41L46.72,89.41c0.61,0.02,1.09,0.52,1.07,1.13
	c-0.02,0.61-0.52,1.09-1.13,1.07c-0.6-0.02-1.07-0.51-1.07-1.1C45.59,89.89,46.1,89.4,46.72,89.41
	C46.72,89.41,46.72,89.41,46.72,89.41 M56.59,26.69L56.59,26.69c1.31-0.79,1.87-0.21,1.26,0.86c-0.81,1.32-1.02,2.44-0.65,3.38
	l1.13-2.47c0.53,0.1,1.13,0.13,0.93,1.8c-0.85,0.32-1.07,1.4-1.47,2.12c-0.1,0.16-0.56-0.15-0.64,0c-0.74-1.58-0.77-3.56-0.52-5.71
	 M33.01,27.91L33.01,27.91c-1.3-0.79-1.35,0.28-0.74,1.35c0.8,1.31,1.02,2.44,0.64,3.39l-0.53-1.69c-0.53,0.1-0.84-0.52-0.63,1.16
	c0.85,0.32,0.17,0.68,0.6,1.41c0.1,0.16,0.74-0.23,0.79-0.05C33.88,31.9,34.81,29.5,33.01,27.91 M31.66,33.8L31.66,33.8
	c-1.17-0.74-1.27,0.27-0.74,1.27c0.69,1.23,0.84,2.28,0.44,3.15l-0.41-1.57c-0.5,0.1-0.74-0.48-0.64,1.07
	c0.77,0.3,0.13,0.64,0.5,1.31c0.08,0.15,0.67-0.21,0.74-0.04c0.74-1.47,1.73-3.68,0.12-5.15 M30.56,39.34L30.56,39.34
	c-0.9-0.33-0.9,0.31-0.46,0.88c0.52,0.49,0.73,1.24,0.53,1.93l-0.4-0.94c-0.35,0.12-0.58-0.21-0.39,0.74
	c0.58,0.1,0.14,0.39,0.45,0.74c0.07,0.09,0.46-0.21,0.53-0.11c0.44-1.01,0.99-2.52-0.26-3.27 M37.55,41.1L37.55,41.1
	c-0.35-0.19-0.97,0.23-1.39,0.94c-0.42,0.71-0.47,1.47-0.13,1.63s0.97-0.24,1.39-0.94S37.89,41.26,37.55,41.1 M56.76,37.16
	L56.76,37.16c0.26-0.15,0.74,0.17,1.02,0.69c0.28,0.52,0.35,1.06,0.1,1.2c-0.25,0.14-0.74-0.17-1.02-0.69
	C56.58,37.83,56.51,37.3,56.76,37.16 M57.4,40.2L57.4,40.2c0.21-0.1,0.56,0.14,0.8,0.55c0.24,0.41,0.27,0.84,0.07,0.95
	c-0.2,0.11-0.57-0.13-0.8-0.55C57.24,40.73,57.21,40.31,57.4,40.2 M54.2,35.08L54.2,35.08c0.35-0.19,0.96,0.23,1.37,0.93
	c0.41,0.71,0.46,1.43,0.13,1.62c-0.34,0.19-0.96-0.24-1.37-0.93C53.92,36,53.86,35.27,54.2,35.08 M54.77,38.16L54.77,38.16
	c0.35-0.18,0.96,0.24,1.37,0.93c0.41,0.7,0.46,1.47,0.13,1.62c-0.34,0.15-0.96-0.23-1.37-0.93C54.49,39.07,54.42,38.35,54.77,38.16
	 M55.29,41.23L55.29,41.23c0.26-0.15,0.74,0.18,1.07,0.74c0.34,0.56,0.37,1.13,0.1,1.28s-0.74-0.18-1.07-0.74
	C55.05,41.96,55.02,41.39,55.29,41.23 M54.8,44.4L54.8,44.4c0.27-0.15,0.74,0.18,1.07,0.74c0.34,0.56,0.37,1.13,0.1,1.27
	s-0.74-0.18-1.07-0.74C54.56,45.12,54.53,44.55,54.8,44.4 M54.26,47.34L54.26,47.34c0.24-0.19,0.78,0,1.21,0.52s0.59,1.03,0.36,1.22
	c-0.23,0.19-0.78,0-1.21-0.51S54.03,47.54,54.26,47.34 M56.9,45.67L56.9,45.67c0.18-0.15,0.62,0,0.96,0.4
	c0.34,0.4,0.47,0.82,0.29,0.97c-0.18,0.15-0.62,0-0.96-0.4C56.84,46.25,56.72,45.83,56.9,45.67 M57.2,48.12L57.2,48.12
	c0.25,0,0.49,0.38,0.53,0.88c0.04,0.5-0.12,0.93-0.36,0.94c-0.24,0.01-0.49-0.36-0.53-0.87C56.79,48.56,56.96,48.14,57.2,48.12
	 M56.46,50.49L56.46,50.49c0.24,0,0.46,0.39,0.48,0.9c0.01,0.51-0.16,0.92-0.41,0.92c-0.25,0-0.46-0.39-0.48-0.89
	S56.22,50.49,56.46,50.49 M54.04,50.12L54.04,50.12c0.24-0.18,0.77,0.09,1.16,0.6c0.38,0.52,0.51,1.07,0.26,1.25
	c-0.25,0.18-0.77-0.1-1.16-0.6C53.9,50.87,53.79,50.3,54.04,50.12 M49.18,48.92L49.18,48.92c0.18-0.13,0.54,0.07,0.82,0.43
	s0.35,0.74,0.18,0.89c-0.17,0.15-0.55-0.07-0.83-0.43S49.01,49.07,49.18,48.92 M32.94,48.87L32.94,48.87
	c0.19-0.13,0.59,0.07,0.89,0.46c0.3,0.39,0.38,0.82,0.19,0.96c-0.19,0.13-0.58-0.07-0.88-0.46C32.84,49.45,32.75,49.01,32.94,48.87
	 M32.49,45.27L32.49,45.27c0.27-0.04,0.57,0.37,0.68,0.92c0.11,0.55-0.04,1.04-0.32,1.08c-0.27,0.04-0.57-0.37-0.66-0.92
	C32.1,45.8,32.19,45.31,32.49,45.27 M32.23,44.35L32.23,44.35c-0.24-0.07-0.3-0.51-0.16-0.99c0.14-0.48,0.46-0.82,0.69-0.74
	c0.24,0.08,0.3,0.51,0.15,0.98C32.77,44.08,32.46,44.43,32.23,44.35 M57.25,42.39L57.25,42.39c0.29-0.16,0.82,0.19,1.16,0.79
	c0.35,0.6,0.39,1.21,0.1,1.36s-0.81-0.19-1.16-0.79C57.01,43.16,56.96,42.54,57.25,42.39 M38.9,33.42L38.9,33.42
	c0.26,0.28,0,0.96-0.63,1.47s-1.33,0.74-1.6,0.49c-0.26-0.25,0-0.96,0.63-1.47C37.92,33.39,38.63,33.17,38.9,33.42 M34.87,33.56
	L34.87,33.56c-0.29-0.25-0.07-0.95,0.5-1.54c0.57-0.59,1.27-0.87,1.56-0.61s0.06,0.96-0.5,1.55C35.87,33.54,35.16,33.82,34.87,33.56
	 M35.55,35.52L35.55,35.52c0.25,0.19,0.11,0.74-0.31,1.27s-0.96,0.74-1.21,0.58c-0.25-0.15-0.11-0.74,0.3-1.27
	S35.3,35.37,35.55,35.52 M34.08,40.68L34.08,40.68c-0.23-0.09-0.25-0.53-0.06-0.99s0.54-0.74,0.74-0.68
	c0.2,0.06,0.25,0.53,0.06,0.99C34.63,40.45,34.28,40.73,34.08,40.68 M34.82,41.79L34.82,41.79c0.29,0.1,0.35,0.65,0.15,1.24
	c-0.21,0.59-0.61,0.99-0.9,0.9s-0.35-0.65-0.15-1.24C34.13,42.1,34.52,41.69,34.82,41.79 M34.08,46.75L34.08,46.75
	c-0.25-0.17-0.15-0.74,0.23-1.26c0.38-0.52,0.9-0.81,1.16-0.64s0.15,0.74-0.23,1.27C34.86,46.64,34.34,46.92,34.08,46.75 M35.99,48
	L35.99,48c0.23,0.14,0.18,0.63-0.12,1.11c-0.3,0.48-0.74,0.74-0.96,0.62c-0.23-0.12-0.18-0.63,0.13-1.11
	C35.33,48.14,35.77,47.89,35.99,48 M35.8,50.95L35.8,50.95c0.26,0.04,0.41,0.52,0.32,1.07s-0.38,0.96-0.65,0.92
	c-0.27-0.04-0.41-0.52-0.32-1.07C35.25,51.31,35.53,50.9,35.8,50.95 M37.64,50.99L37.64,50.99c0.27,0,0.46,0.47,0.43,1.03
	c-0.03,0.56-0.29,0.99-0.57,0.98c-0.27-0.01-0.46-0.49-0.42-1.04C37.12,51.41,37.37,50.97,37.64,50.99 M53.22,34.95L53.22,34.95
	c-0.23-0.04-0.33-0.46-0.24-0.93c0.1-0.46,0.37-0.81,0.6-0.74c0.23,0.07,0.34,0.46,0.24,0.93C53.72,34.68,53.45,35.03,53.22,34.95
	 M55.9,33.37L55.9,33.37c-0.18,0.07-0.47-0.18-0.64-0.57c-0.17-0.39-0.15-0.74,0.04-0.83c0.18-0.1,0.48,0.17,0.65,0.55
	C56.11,32.91,56.09,33.26,55.9,33.37 M27.47,56.29L27.47,56.29c0.4,0,0.74,1.6,0.74,3.55c0,1.96-0.33,3.55-0.74,3.55
	s-0.74-1.6-0.74-3.55C26.74,57.89,27.07,56.29,27.47,56.29 M35.03,55.03L35.03,55.03c0.2,0,0.36,0.98,0.36,2.21
	s-0.17,2.17-0.37,2.17s-0.37-0.97-0.37-2.17S34.83,55.03,35.03,55.03 M48.9,57.08L48.9,57.08c0.58,0,1.27,1.99,1.51,4.42
	c0.24,2.43,0,4.42-0.62,4.42s-1.26-1.99-1.51-4.42C48.04,59.07,48.32,57.08,48.9,57.08 M56.48,55.97L56.48,55.97
	c0.32,0.17,0.28,2.33-0.1,5.78c-0.38,3.45-0.79,6.22-1.6,5.74c-0.81-0.48,0.04-2.88,0.43-6.34c0.21-1.94,0.24-3.96,0.5-5.05
	C55.91,55.28,56.34,55.91,56.48,55.97 M33.01,59.28L33.01,59.28c0.24,0.17,0.54,2.33,0.13,5.78c-0.41,3.46-1.24,6.21-1.85,5.73
	s0.46-2.8,0.88-6.26c0.24-1.94,0-4.03,0.24-5.15c0.18-0.85,0.49-0.21,0.6-0.14 M57.36,53.48L57.36,53.48
	c6.83,4.1,4.03,13.71,4.05,14.65l0.09,2.24h0.74l0.51-12.72c1.78-0.04,1.91,4.02,0.41,12.2c0.24,1.42,3.57,8.1-0.51,4.49l0.57,2.78
	c0.82-0.48,1.52-0.22,2.11,0.78c-0.32,1.42,2.62,1.97,0,2.68l-1.09-2.3l-0.56,3.25c-2.52-3.41-3.46-6.58-4.46-9.24
	c-1.6-4.23-2.88-7.27-2.06-9.24L57.36,53.48z M32.56,51.27L32.56,51.27c-1.36,1.69-2.55,3.63-4.24,4.62
	c1.04,2.33,0.99,4.45,0.29,10.79c-1.43,3.97-1.91,10.23-0.33,8.35c-0.13,0.61,0-1.37,0.33-1.81c0.33-0.44,0.16,2.07,0.85,1.47
	c1.18-1,0.29,3.06-3.33,2.38c0.07,1.07-1.47,2.47,0.44,3.54c0.92-1.26,4.2-0.74,2.59-2.12c2.15-2.88,2.58-4.68,2.61-6.95
	c0-1.88,1.08-0.62,1.24-1.03c1.6-4.23,2.88-6.41,1.35-8.92L32.56,51.27z M36.36,57.09L36.36,57.09c-0.83-5.03,5.89-2.88,4.25,4.53
	c-0.3,1.76-0.02,3.57,0.81,5.15c0.78,1.63-0.4,3.55,0.74,5.15c0.14,0.88-0.1,1.78-0.65,2.48c-0.21-1.17-0.09-2.98-0.96-2.58
	c0.17,1.31,0.05,2.05-0.37,2.21l-0.21-2.1h-0.85c0,1.16,0.44,2.21,0,3.48c-0.95,0.59-1.47,0.86-1.54,1.77
	c-0.52,0.79-0.92,0.32-1.21-0.78c1.42-0.84,2.21-2.03,1.6-3.99c-0.25,0.85-0.17,1.38-0.74,1.28c0.88-7.25-1.3-11.33-0.85-16.68
	 M43.99,61.44L43.99,61.44c0.31-4.78,4.56-3.13,3.93,3.9c1.06,3.06,1.16,6.38,0.27,9.5c-0.68,1.23-0.42,2.57,0.35,4.64
	c-1.46,0.42-2.99,0.55-4.5,0.35c-1.33-6.01,0.93-12.35-0.08-18.4 M50.59,56.75L50.59,56.75c0.29-1.47,4.67-5.27,4.04-1.37
	c0.82,4.6-3.14,13.73-0.07,15.2c0,1.65,0.24,3.62-0.29,5.38C52.22,76.47,51.21,60.43,50.59,56.75 M35.03,68.4L35.03,68.4
	c1.08,1.02,1.41,3,1.63,4.54c-0.91,2.05-1.71,2.29-2.74,2C34.41,72.79,34.78,70.6,35.03,68.4 M20.2,88.36L20.2,88.36
	c1.09,0.4,1.97,1.22,2.44,2.28c-0.33,1.06-1.34,1.76-2.44,1.69C20.33,91,20.33,89.67,20.2,88.36 M56.56,69.47L56.56,69.47
	c0.48,0,0.87,1.38,0.86,3.06s-0.39,3.05-0.87,3.05c-0.48,0-0.88-1.37-0.87-3.05S56.07,69.47,56.56,69.47 M51.66,71.21L51.66,71.21
	c0.24,0,0.42,1.37,0.42,3.06s-0.2,3.06-0.43,3.06s-0.42-1.38-0.41-3.06S51.43,71.21,51.66,71.21 M22.29,83.86L22.29,83.86
	c1.07-0.91,1.88-0.93,2.72-0.48c0.18,0.1,0.07,0.79,0.29,0.96c0.21,0.17,0.77-0.17,0.96,0.15c0.34,0.65,0.48,1.39,0.4,2.13
	l0.54,0.74l-0.08,1.07l0.68,0.14l0.15,1.52c1.56,1.66,3.27-1.18,4.47,0.82c3.81,0.21,1.62-2.58,2.26-4.03
	c0.34-1.03,1.04-1.89,1.98-2.42c0.68-0.4,0.85-0.14,0.52,0.43c-0.78,1.24-1.24,2.65-1.32,4.11c-0.15,3.61-2.59,1.47-3.04,2.87
	c-1,2.48,4.42,4.73,4.65,7.63h-1.13c-2.21-5.56-6.98-2.57-6.87-5.49c-1.88,1.84-3.27,0.61-4.14-1.29c-0.07,1.64-0.24,3.06-1.47,3
	c-2.17,0.16-2.16,1.94,0.04,3.11l-0.74,0.53c-2.09-0.97-2.51-2.82-0.82-3.86c0.67-0.18,1.06-0.87,0.88-1.54
	c-0.04-0.16-0.12-0.31-0.22-0.44l0.19-3.06c0.08-1.53,0.91-2.94,0.23-4.61c-0.21-0.41-0.51-0.4-0.61,0.17
	c0.34,0.54,0.32,1.22-0.04,1.74c-0.16,0.29-0.7,0.38-0.96-0.22c0.32-1.09-0.35-2.94,0.52-3.68 M24.41,85.61L24.41,85.61
	c0.09-0.06,0.27,0.13,0.52,0.47c0.09,0.13,0.18,0.53,0.27,0.68c0.1,0.15,0.12-0.05,0.18,0.06c0.06,0.11,0.11,0.53,0.2,0.7
	c0.09,0.17,0.22,0.1,0.31,0.28l0.14,0.32c0.07,0.13,0,0.44,0.18,0.38s0.1,0.26,0.15,0.38c0.05,0.12,0,0.55,0.07,0.67
	s0.22,0.08,0.29,0.26c0.07,0.18,0,0.59,0.05,0.67c0.15,0.43,0.27,0.57,0.17,0.63s-0.39-0.24-0.74-0.8c-0.1-0.15-0.12-0.43-0.22-0.63
	c-0.1-0.2-0.21-0.13-0.27-0.26s-0.15-0.64-0.22-0.77c-0.07-0.13-0.1,0.11-0.17,0c-0.07-0.11-0.18-0.87-0.26-1.04
	c-0.13-0.29-0.2-0.05-0.29-0.31c-0.1-0.26,0-0.15-0.08-0.35c-0.15-0.54-0.36-1.23-0.26-1.3 M27.32,83.12h8.73v0.84
	c-3.29,1.6-1.9,7.01-3.88,5.65l-1.87-0.22c-1.18-0.7-1.86-2.01-1.76-3.38l-1,0.06L27.32,83.12z M60.44,86.28L60.44,86.28
	c0.29,0.03,0.5,0.29,0.47,0.58c0.06,0.26-0.11,0.52-0.37,0.58c-0.26,0.06-0.52-0.11-0.58-0.37c-0.01-0.07-0.01-0.14,0-0.21
	C59.93,86.57,60.14,86.31,60.44,86.28 M21.79,81.74L21.79,81.74c0.35-0.03,0.61-0.34,0.58-0.68c0.06-0.32-0.15-0.63-0.46-0.69
	c-0.32-0.06-0.63,0.15-0.69,0.46c-0.01,0.07-0.01,0.15,0,0.23C21.19,81.4,21.45,81.71,21.79,81.74 M23.53,79.53L23.53,79.53
	c0.38,0.05,0.64,0.4,0.59,0.78c-0.05,0.38-0.4,0.64-0.78,0.59c-0.34-0.05-0.6-0.34-0.6-0.69C22.77,79.81,23.12,79.5,23.53,79.53
	C23.53,79.53,23.53,79.53,23.53,79.53 M60.61,78.9L60.61,78.9c0.4-0.04,0.77,0.25,0.81,0.65c0.04,0.4-0.25,0.77-0.65,0.81
	c-0.4,0.04-0.77-0.25-0.81-0.65c0-0.03,0-0.05,0-0.08C59.95,79.26,60.23,78.94,60.61,78.9 M72.59,84.99L72.59,84.99
	c0.34,0,0.6,2.45,0.6,5.45c-0.01,3-0.28,5.43-0.6,5.43c-0.32,0-0.6-2.44-0.6-5.43C72,87.44,72.27,84.99,72.59,84.99 M24.41,96.3
	L24.41,96.3c5.6-0.35,8.43,0.42,8.51,2.32l0.11,2.85l-0.74,0.04l-0.1-1.23c-0.37-0.46-0.84-0.82-1.42-0.43l-0.46,1.05h-0.63
	l-0.2-1.18c-0.31-0.59-1.03-0.82-1.63-0.52c-0.13,0.07-0.25,0.16-0.35,0.28l-0.19,1.25l-0.77-0.13l-0.23-1.43l-2.13-0.77
	c-0.69-0.74-0.4-1.41,0.22-2.1 M57.14,91.87L57.14,91.87l0.94,0.12l0.37,2.83c0.27,1.06,2.3,0.95,2.14,2.21l-1.83,2.94h-0.6
	l0.74-1.37c-0.22-0.67,1.1-2.09-1.21-0.66l-0.67,2.15l-4.28,0.21c3.41-3.38,4.78-6.19,4.42-8.44 M64.91,91.01L64.91,91.01
	c3.82-0.49,5.01,1.13,3.59,4.86c-0.9,1.12-1.64,2.36-2.21,3.68h-1.42l1.73-3.08c1.55-2.31,1.04-2.5-0.9-1.23L64.34,95L64.91,91.01z
	 M58.7,85.85L58.7,85.85l0.26-2.21l0.51,1.52l0.86,0.07l1.21-1.55c0.24,1.31,1.3,2.38,0.74,3.91c-0.21,0.57-0.74,1.47-1.74,1.16
	c-0.24,1.12-0.21,2.27,0.11,3.37l0.43,0.65c-0.02-1.17,0.13-2.35,0.43-3.48c1.47-0.6,4.47-3.94,2.77,1.07
	c-0.86,3.19-1.47,6.45-1.82,9.74l-1.3-0.11c1.05-2.3,0.33-4.3-1.83-6.03l0.12-1.36l0.11-2.94c-1.3-0.79-1.71-2.49-0.91-3.78
	c0.01-0.01,0.01-0.02,0.02-0.04 M38.43,76.98L38.43,76.98c0.33,1.24,0.96,1.96,1.13,0.34c0.46-1.61,1.1-1.6,1.02-0.05
	c0.38,0.78,0.58,1.11,1.21-0.13C41.46,74.53,39.68,75.02,38.43,76.98 M49.26,79.13L49.26,79.13c0.29,1.07,0.83,1.7,0.98,0.29
	c0.4-1.39,0.95-1.38,0.88-0.04c0.32,0.68,0.5,0.96,1.05-0.12C51.88,77.02,50.35,77.44,49.26,79.13 M21.61,78.53L21.61,78.53
	c1.02-2.31,3.22-2.21,1.35-0.23l-0.79,0.56c-0.17,0.74-0.46,1.2-0.74,0.61L21.61,78.53z M24.41,77.4L24.41,77.4
	c1.03-2.31,3.22-2.21,1.35-0.23l-0.78,0.56c-0.17,0.74-0.47,1.21-0.78,0.61L24.41,77.4z M31.26,78.05L31.26,78.05
	c1.02-2.3,3.22-2.21,1.35-0.22l-0.78,0.55c-0.17,0.74-0.46,1.21-0.78,0.62L31.26,78.05z M33.46,77.69L33.46,77.69
	c1.02-2.31,3.22-2.21,1.35-0.22l-0.79,0.56c-0.16,0.74-0.46,1.2-0.78,0.61L33.46,77.69z M68.6,99.37L68.6,99.37
	c1.41-1.67,0.43-3.25-0.36-1.08l-0.13,0.79c-0.52,0.42-0.74,0.83-0.17,0.82L68.6,99.37z M69.8,78.5L69.8,78.5
	c-1.01-2.31-3.21-2.21-1.35-0.23l0.78,0.56c0.17,0.74,0.46,1.21,0.78,0.61L69.8,78.5z M67.97,78.93L67.97,78.93
	c-1.02-2.3-3.22-2.21-1.35-0.23l0.78,0.56c0.16,0.74,0.46,1.21,0.77,0.61L67.97,78.93z M58.73,78.72L58.73,78.72
	c-0.25-2.49-2.38-3.04-1.22-0.61l0.57,0.74c-0.07,0.74,0.06,1.28,0.54,0.82L58.73,78.72z M56.11,79.14L56.11,79.14
	c0.56-2.45-1.3-3.59-0.96-0.94l0.3,0.89c-0.31,0.74-0.35,1.24,0.26,0.94L56.11,79.14z M54.1,79.19L54.1,79.19
	c0.35-2.49-1.58-3.49-1.04-0.87l0.38,0.87c-0.26,0.74-0.25,1.26,0.34,0.91L54.1,79.19z M55.24,83.3L55.24,83.3l1.74,0.45l0.81,0.45
	v3.92L56.4,86.1L55.24,83.3z M66.12,96.19L66.12,96.19l-2.3-0.1l-0.24,0.99l0.18,2.37l0.74-1.01L66.12,96.19z M62.49,83.78
	L62.49,83.78c2.94-0.12,4.95,1.24,5.37,4.29v1.64c0,0.68-0.82,1.25-1.47,0.1c-0.38-2.21-1.47-3.39-3.39-3.44L62.49,83.78z
	 M68.62,85.6L68.62,85.6l0.65,3.75l0.59-0.37l-0.1-3.93l0.93,3.57l0.24-3.22l0.74,0.21v10.3L71,94.8l-0.74,2.38
	c-0.37-1.65-0.06-4.66-1.08-4.94L68.62,85.6z M51.27,66.34L51.27,66.34l-0.65-0.27l-1.05,7.03c0.34,2.68,0.79,1.43,1.04,0.09
	L51.27,66.34z M34.59,92.05L34.59,92.05c0.49-0.24,1.18,0.15,1.53,0.85c0.35,0.71,0.25,1.47-0.25,1.69
	c-0.5,0.21-1.18-0.15-1.53-0.85S34.1,92.27,34.59,92.05 M36.6,95.28L36.6,95.28c0.35,0.01,0.63,0.31,0.62,0.66
	c-0.01,0.35-0.31,0.63-0.66,0.62c-0.34-0.01-0.61-0.29-0.62-0.63c0-0.36,0.29-0.65,0.65-0.65C36.59,95.28,36.59,95.28,36.6,95.28
	 M38.62,98.11L38.62,98.11c0.38-0.04,0.72,0.23,0.77,0.61s-0.23,0.72-0.61,0.77c-0.38,0.04-0.72-0.23-0.77-0.61
	c0-0.03,0-0.06,0-0.08C38,98.44,38.27,98.14,38.62,98.11 M37.03,79.11c0.31,0,0.56,0.37,0.56,0.82c0,0.46-0.25,0.82-0.57,0.82
	c-0.32,0-0.57-0.38-0.57-0.82S36.71,79.11,37.03,79.11"/>
<path class="st3" d="M217.24,41.58c-1.5-0.1-2.97-0.43-4.37-0.98l-2.13-3.61c0.72,0.12,1.45,0.2,2.18,0.24
	c1.25,0,1.85-0.72,1.85-2.68V24.16h-7.58v14.42c0,1.31,0.38,2.67,4.58,5.24l12.22,7.41c1.35,0.69,2.24,2.03,2.36,3.54
	c-0.28,1.58-1.02,3.05-2.14,4.2l-4.5-3.27c0.43-0.66,0.73-1.4,0.87-2.18c-0.06-0.94-0.6-1.78-1.42-2.23
	c-1.43-0.93-13.98-8.26-15.02-8.95c-1.69-1.18-2.02-2.13-2.02-3.22V24.16h-3.91l-2.73-4.63h28.71l2.73,4.58h-7.15v13.92
	C219.8,40.82,218.99,41.58,217.24,41.58"/>
<path class="st3" d="M234.7,41.36c0,0.77-0.54,1.18-1.42,1.18c-1.48,0-6.55-5.18-6.55-7.14c0.04-0.7,0.64-1.23,1.34-1.18
	c0.01,0,0.02,0,0.03,0h1.58V24.16h-5.47l-2.73-4.63h29.59l2.73,4.58h-5.45v24.62l-5.18-3.44l0.27-6.43h-8.74L234.7,41.36z
	 M234.7,34.27h8.64V24.12h-8.63L234.7,34.27z"/>
<path class="st3" d="M102.85,41.58c-1.5-0.1-2.97-0.43-4.37-0.98l-2.13-3.61c0.72,0.12,1.45,0.2,2.18,0.24
	c1.25,0,1.85-0.72,1.85-2.68V24.16H92.8v14.42c0,1.31,0.39,2.67,4.59,5.24l12.22,7.41c1.35,0.69,2.24,2.03,2.36,3.54
	c-0.28,1.58-1.02,3.05-2.14,4.2l-4.52-3.28c0.43-0.66,0.73-1.4,0.87-2.18c-0.06-0.94-0.6-1.78-1.42-2.23
	c-1.43-0.93-13.98-8.26-15.02-8.95c-1.69-1.18-2.02-2.13-2.02-3.22V24.16H83.8l-2.7-4.63h28.71l2.73,4.58h-7.15v13.92
	c0,2.79-0.81,3.54-2.56,3.54"/>
<path class="st3" d="M120.28,41.36c0,0.77-0.54,1.18-1.42,1.18c-1.48,0-6.55-5.18-6.55-7.14c0.04-0.7,0.64-1.23,1.34-1.18
	c0.01,0,0.02,0,0.03,0h1.58V24.16h-5.45l-2.74-4.63h29.59l2.73,4.58h-5.45v24.62l-5.18-3.44l0.27-6.43h-8.74V41.36z M120.28,34.27
	h8.63V24.12h-8.63V34.27z"/>
<path class="st3" d="M158.21,41.58c-1.5-0.1-2.97-0.43-4.37-0.98l-2.14-3.61c0.72,0.12,1.45,0.19,2.18,0.24
	c1.26,0,1.85-0.72,1.85-2.68V24.16h-7.58v14.42c0,1.31,0.38,2.67,4.58,5.24l12.23,7.41c1.34,0.69,2.24,2.03,2.36,3.54
	c-0.28,1.58-1.02,3.04-2.13,4.2l-4.51-3.27c0.44-0.66,0.74-1.4,0.87-2.18c-0.06-0.94-0.59-1.78-1.42-2.23
	c-1.42-0.93-13.97-8.26-15.01-8.95c-1.7-1.18-2.02-2.13-2.02-3.22V24.16h-3.92l-2.73-4.63h28.7l2.74,4.58h-7.15v13.92
	C160.77,40.82,159.94,41.58,158.21,41.58"/>
<path class="st3" d="M182.87,38.85c-1.91,0-3.6-1.48-5.03-2.73c-1.03,1.5-2.3,2.81-3.77,3.87c2.19,2.94,4.6,5.7,7.21,8.26
	l-2.14,1.97l-9.01-11.88c-0.93-1.25-2.36-3.65-2.36-5.12c0.12-1.06,1-1.87,2.07-1.91c1.18,0,2.36,1.58,3,1.58
	c0.17,0,0.28-0.27,0.28-0.65v-8.09h-7.92l-2.81-4.63h33.06l2.73,4.58h-5.45v24.62l-5.19-3.44l0.27-7.53
	c-1.53,0.8-3.24,1.16-4.96,1.04 M178.04,24.12v9.59c1.3,0.42,2.67,0.6,4.04,0.55c0.87,0,5.18-1.04,5.62-1.7v-8.41L178.04,24.12z"/>
<path class="st3" d="M262.5,50.74c-0.5-0.68-1.33-1.06-2.17-0.99c-1.25-0.11-2.39-0.77-3.12-1.79c-0.25-1.22-0.35-2.47-0.27-3.72
	c0.02-0.97,0.79-1.75,1.76-1.79c1.25,0,2.13,0.65,2.95,2.95c5.35-0.22,8.45-4.1,8.45-5.51c0.02-0.46-0.34-0.86-0.8-0.88
	c-0.04,0-0.08,0-0.12,0c-0.93,0-3.93,1.48-5.9,1.48c-2.79,0-6.77-5.19-6.77-8.68c0-3.06,1.69-4.53,3.39-4.53h7.64v-3.11h-13.77
	l-2.73-4.63h24.18l2.73,4.59h-5.79v6.15c0,0.89-0.38,1.32-0.92,1.32h-8.95c-1.37,0.12-2.41,1.29-2.36,2.67
	c0,1.26,0.48,1.58,1.04,1.58c0.55,0,5.9-1.48,7.08-1.48c1.58,0,2.29,0.33,2.85,1.1c1.63,2.36,3,5.18,3,6.87
	c0,2.47-4.53,6.72-9.5,7.21l4.14,6.66l-2.23,1.36c-1.31-2.36-3.22-6.06-3.83-6.87"/>
<path class="st3" d="M264.79,11.33c-0.06-2.89,2.24-5.29,5.13-5.35c0.06,0,0.11,0,0.17,0c2.36,0,4.64,1.69,5.35,7.43L273.46,14
	c-0.54-2.46-1.25-3.44-2.36-3.44c-1.64,0-2.46,0.87-2.46,2.73c0.33,2.38,1.13,4.66,2.36,6.72h-2.36c-1.58-2.36-3.83-6.49-3.83-8.68"
	/>
<rect x="97.55" y="65.11" class="st3" width="11.03" height="33"/>
<path class="st3" d="M92.88,65.11v37.99H81.59l-0.28-27.62c0.22-6.12,4.72-9.13,11.61-10.38"/>
<path class="st3" d="M112.52,65.11v37.99h11.32l0.28-27.62C123.9,69.37,119.4,66.36,112.52,65.11"/>
<rect x="199.7" y="65.11" class="st3" width="11.03" height="33"/>
<path class="st3" d="M195.65,65.11v37.99h-11.91l-0.31-27.62C183.66,69.37,188.4,66.36,195.65,65.11"/>
<path class="st3" d="M215.69,65.11v37.99h11.03L227,75.49C226.78,69.37,222.4,66.36,215.69,65.11"/>
<path class="st3" d="M234.56,77.07h43.83V66.22l-31.88-0.28c-7.08,0.22-10.52,4.53-11.96,11.13"/>
<rect x="235.1" y="80.19" class="st3" width="31.84" height="9.07"/>
<path class="st3" d="M235.08,92.99h43.24v9.07l-31.44,0.22c-6.95-0.18-10.37-3.78-11.81-9.29"/>
<path class="st3" d="M131.7,76.89h44.5V65.74l-32.35-0.28C136.68,65.68,133.22,70.1,131.7,76.89"/>
<path class="st3" d="M176.81,93.47H131.7v9.07l32.8,0.22C171.76,102.58,175.34,98.98,176.81,93.47"/>
<path class="st3" d="M131.09,80.21l35.59,0.13c6.07,0.3,9.45,4.2,9.88,9.11h-34.7c-6.9-0.25-10.19-3.54-10.77-9.2"/>
<line class="st4" x1="81.22" y1="60.84" x2="277.48" y2="60.84"/>
<path class="st2" d="M48.01,113.07h-0.08v0.07h-1.22v7.44l-1.3-0.94v-1.85l-0.25,0.12l-0.64,0.25l-0.52,0.06h-0.24h-0.23l-0.23-0.06
	l-0.21-0.08l-0.22-0.11l-0.2-0.12l-0.19-0.16l-0.19-0.17l-0.05-0.05v-0.05v-0.05v-0.04v-0.05v-0.05v-0.05v-0.05l-0.24-0.42
	l-0.04-0.13v-0.12v-0.12v-0.12v-0.12v-0.12v-0.24v-0.28l0.06-0.26l0.1-0.24l0.13-0.22l0.18-0.2l0.21-0.17l0.25-0.16l0.27-0.12h0.1
	l0.12-0.04h0.13h0.16l0.18-0.04h0.2h0.22h0.26h0.63l0.53,0.83v-1.48h-4.83v7.45l-1.27-0.96v-3.22h-2.37v0.54v0.09v0.09l-0.05,0.09
	l-0.06,0.07l-0.08,0.05l-0.09,0.04h-0.11h-0.15h-0.14l-0.14-0.05l-0.14-0.07l-0.14-0.09L36,117.27l-0.15-0.12L35.7,117l0,0l0,0l0,0
	l0,0v-0.04v-0.04l0,0v-0.05v-0.05l0,0v-0.04v-0.04v-0.05l0,0l0,0l0,0l-0.04-0.05v-0.06v-0.06v-0.06v-0.05v-0.06v-0.5v-0.09
	l0.04-0.08l0.05-0.08l0.07-0.06l0.08-0.05h0.09h0.11h0.42v-2.29h-1.94v7.45l-1.28-0.96v-2.21l0,0h-0.05H33.2h-0.05h-0.06l-0.07,0.04
	h-0.08l-0.24,0.12l-0.24,0.06h-0.16h-0.04h-0.27h-0.29h-0.13h-0.12h-0.12h-0.12h-0.12l-0.11-0.04l-0.12-0.05l-0.11-0.05l-0.12-0.06
	l-0.11-0.06l-0.11-0.09l-0.11-0.09l-0.11-0.09l-0.11-0.11l-0.08-0.09l-0.08-0.1l-0.08-0.09l-0.08-0.11l-0.08-0.12l-0.08-0.12
	l-0.09-0.13l-0.09-0.15L29.37,116v-0.15v-0.15v-0.15v-0.16v-0.12h-2.42l0,0l0,0l0,0l0,0l-0.15,0.28l-0.05,0.39v0.24v0.27l0.05,0.26
	l0.09,0.28l0.1,0.29l0.13,0.3l0.14,0.3l0.18,0.32l0.3,0.51l0.63,0.84l-0.88,0.52l-0.14-0.08l-0.07-0.05l-0.07-0.06l-0.06-0.06
	l-0.05-0.07l-0.06-0.09l-0.05-0.09l-0.05-0.09l-0.56-1.11v-0.08v-0.07v-0.09v-0.09v-0.09l-0.05-0.09v-0.1l-0.04-0.11l-0.05-0.11
	v-0.11l-0.05-0.1l-0.04-0.1v-0.09v-0.09v-0.09v-0.1l-0.05-0.15l-0.04-0.16v-0.16l-0.04-0.16v-0.16v-0.16v-0.16v-0.18v-0.27v-0.12
	v-0.12l0.04-0.12l-0.52,0.12l0.05-0.1l0.05-0.09l0.13-0.23l0.09-0.11l0.09-0.09l0.09-0.09l0.11-0.08l0.12-0.06l0.12-0.06l0.12-0.04
	h0.15h2.78v0.78l0.27-0.08h0.06h0.06l0.05-0.06l0.05-0.05l0.05-0.07l0.04-0.09v-0.09v-0.09v-0.3v-0.37v-0.15l0,0v-0.16l-0.08-0.12
	h-5.53v7.44l-1.31-0.94v-3.23l-0.23,0.12h-0.09h-0.09h-0.09h-0.09h-0.58h-0.09h-0.08h-0.09h-0.1l-0.1-0.04h-0.11l-0.12-0.05
	l-0.15-0.05l-0.44-0.33l-0.06-0.08l0,0l0,0l-0.23,0.4l-0.37,0.37l-0.21,0.15l0.38,0.59l0.52,0.78l0.6,0.84l0.3,0.32l0.52,0.52
	l-1.09,0.54l-0.57-0.87l-0.45-0.68l-0.64-0.91l-0.35-0.52l-0.16-0.28l-0.16-0.27l-0.13-0.27l-0.12-0.26l-0.1-0.26l-0.08-0.25
	l-0.06-0.24l-0.05-0.26v-0.18l0.07-0.16l0,0v-0.05l0.04-0.05l0,0h0.05h0.04h0.05h0.09h1v-1.67h-2.07v-1.51h21.79l-1.43-1.76l0,0l0,0
	l0,0l0,0l0,0l0,0l0,0l0,0l-0.29-0.05h-1.56l-0.7-1.41h2.34l0.34,0.05h0.08h0.15l0,0l0,0l0,0l0.54,0.72l0.61,0.87l0.22,0.28
	l0.19,0.29l0.22,0.3l0.2,0.32l0.25,0.37h7.58L48.01,113.07z M45.41,115.06L45.41,115.06h-0.57h-0.56h-0.05h-0.07h-0.2l-0.16,0.04
	l-0.16,0.05l-0.15,0.05l-0.14,0.08l-0.13,0.09l-0.12,0.11l-0.11,0.11l0,0l0,0l0,0l0,0v0.05l0,0l0,0v0.04v0.17v0.04v0.05v0.38v0.09
	v0.09l0.04,0.09v0.09l0.05,0.09l0.06,0.07l0,0l0,0l0,0l0,0h0.05h0.05h0.05l0,0h0.05h0.06h0.07h0.52h0.07h0.06h0.06h0.06h0.06h0.06
	h0.06l0.07-0.04h0.08l0.08-0.05l0.09-0.05l0.09-0.06l0.1-0.07l0.07-0.04l0.05-0.05h0.06l0.05-0.04l0.05-0.04l0,0l0,0v-0.04
	l0.11-0.14L45.41,115.06z M70.46,108.74h0.14l0,0l0,0l0,0l0.55,0.72l0.6,0.87l0.23,0.28l0.18,0.29l0.22,0.3l0.2,0.32l0.25,0.37h1.44
	V113h-0.08v0.07h-1.2v7.46l-1.2-0.78v-4.37h-2.51l0,0h-0.05l-0.19,0.17l-0.12,0.25l-0.05,0.34v0.41v0.06v0.06v0.05v0.07v0.05v0.07
	v0.06v0.07v0.06l0.06,0.15l0.08,0.16l0.08,0.14l0.09,0.14l0.09,0.14l0.1,0.13l0.1,0.13l0.11,0.13l0.38,0.41l0.84,0.78l-0.98,0.45
	l-0.14-0.05l-0.08-0.04l-0.08-0.05l-0.07-0.05l-0.07-0.06l-0.06-0.06l-0.07-0.09l-0.05-0.08l-0.69-1l-0.12-0.19l-0.12-0.2
	l-0.11-0.17l-0.1-0.19l-0.1-0.18l-0.08-0.18l-0.08-0.17l-0.07-0.17l-0.06-0.17l-0.05-0.16l-0.05-0.16v-0.15v-0.14v-0.14v-0.13v-0.39
	v-0.12v-0.11v-0.11v-0.1v-0.09l0.05-0.09l0.16-0.26l0.21-0.24l0.24-0.2l0.26-0.12h3.12v-0.92h-5.13v7.45l-1.11-0.96v-2.15l0,0h-0.05
	h-0.06H65.2h-0.06l-0.07,0.04h-0.08l-0.24,0.12l-0.23,0.06h-0.17H64.3h-0.27h-0.28h-0.14h-0.12h-0.12h-0.12h-0.12l-0.12-0.04
	l-0.12-0.05l-0.11-0.05l-0.12-0.06l-0.11-0.06l-0.11-0.09l-0.11-0.09l-0.1-0.09l-0.11-0.11l-0.09-0.09l-0.08-0.1l-0.08-0.09
	l-0.08-0.11l-0.08-0.12l-0.08-0.12l-0.08-0.13l-0.09-0.15L61.43,116l-0.05-0.15v-0.15v-0.15v-0.16v-0.15v-0.48h0.78l0.37-0.11h0.06
	h0.06l0.05-0.06l0.05-0.05l0.05-0.07l0.05-0.09v-0.09v-0.09v-0.3v-0.37v-0.15l0,0v-0.16l0,0l-0.08-0.12h-2.51v7.4l-1.29-0.91v-4.3
	h-1.44l0.19,0.3l0.13,0.45v0.45v0.17v0.16v0.16v0.16l-0.05,0.15l-0.06,0.14l-0.07,0.14l-0.09,0.15l-0.05,0.07l-0.05,0.07l-0.06,0.06
	l-0.06,0.06l-0.07,0.05l-0.08,0.05l-0.07,0.05l-0.09,0.05h-0.1h-0.08h-0.08h-0.08h-0.08h-0.08h-0.07h-0.09h-0.16h-0.16l-0.15-0.04
	l-0.16-0.05l-0.14-0.07l-0.15-0.08l-0.14-0.1l-0.13-0.11l-0.14-0.12l-0.15-0.14l-0.14-0.16l-0.13-0.16l-0.12-0.18l-0.12-0.19
	l-0.11-0.2l-0.12-0.2l-0.52-0.58l-0.44-1.19l1.09-0.57v0.84v0.05v0.05v0.05v0.04v0.05v0.05v0.05l0.19,0.59l0.05,0.15l0.05,0.14
	l0.07,0.14l0.08,0.12l0.08,0.12l0.09,0.11l0.09,0.11l0.11,0.09l0.09,0.07l0.1,0.06l0.09,0.05l0.09,0.04h0.1h0.11h0.11h0.09
	l0.19-0.04l0.2-0.09l0,0v-0.04v-0.05v-0.07v-0.07v-0.09v-0.11v-0.1v-0.27v-0.09v-0.09v-0.09v-0.08v-0.09v-0.08l-0.05-0.08
	l-0.05-0.09l-0.05-0.09l-0.05-0.09l-0.07-0.09l-0.07-0.09l-0.06-0.09l-0.27-0.24l0,0l0,0h-0.05l-0.05-0.05l-0.08-0.06l-0.09-0.06
	l-0.09-0.07l-0.51-0.37h3.96v-0.96h-5.81v-1.27h18.74l-1.44-1.76l0,0l0,0l0,0l0,0l0,0l0,0l0,0l0,0l-0.3-0.05h-1.56l-0.7-1.41h2.41
	l0.33,0.05L70.46,108.74z M23.15,113.17h-2.3v2.04l0.15,0.1l0.28,0.09l0.26,0.07h0.44h0.09h0.09h0.09h0.09h0.09h0.09h0.09h0.06h0.06
	h0.07l0.07-0.05l0.09-0.05l0.09-0.06l0.09-0.07h0.04L23.15,113.17z M30.96,113.17L30.96,113.17l0.09,0.19l0.2,0.47l0.06,0.45v0.17
	v0.16v0.16l-0.04,0.16l-0.05,0.16l-0.07,0.14l-0.08,0.14l-0.09,0.13v0.05l-0.05,0.05l-0.05,0.05l-0.05,0.05l-0.06,0.05h-0.06
	l-0.07,0.04l-0.08,0.05l-0.27,0.09l-0.25,0.09H29.8l0.06,0.1l0.08,0.09l0.1,0.1l0.11,0.09l0.12,0.07l0.15,0.06l0.16,0.05h0.18h0.2
	h0.48l0.3-0.09l0.27-0.13l0.3-0.19l0.33-0.29l0.13-0.16v-2.66L30.96,113.17z M39.32,115.46L39.32,115.46v-2.29h-2.06v2.29H39.32z
	 M63.63,113.17l0.09,0.19l0.2,0.47l0.06,0.45v0.17v0.16v0.16l-0.05,0.16l-0.05,0.16l-0.07,0.14l-0.08,0.14l-0.09,0.13l-0.05,0.05
	l-0.05,0.05l-0.05,0.05l-0.05,0.05l-0.05,0.05h-0.07l-0.07,0.04l-0.08,0.05l-0.26,0.09l-0.26,0.09h-0.23l0.06,0.1l0.08,0.09l0.1,0.1
	l0.11,0.09l0.13,0.07l0.15,0.06l0.16,0.05h0.18h0.2h0.48l0.3-0.09l0.27-0.13l0.3-0.19l0.33-0.29l0.14-0.16v-2.66L63.63,113.17z"/>
</svg>
